<svg width="300" height="214" viewBox="0 0 300 214" fill="none" xmlns="http://www.w3.org/2000/svg">
<rect width="200" height="200" rx="20" fill="#FF2E63"/>
<path fill-rule="evenodd" clip-rule="evenodd" d="M122.838 125.079C110.792 129.929 95.3972 153.911 108.192 179.387C122.201 207.28 161.215 216.326 195.218 198.316C217.082 186.735 234.031 177.086 261.029 173.763C275.515 171.981 310.174 124.347 288.464 79.6766C266.754 35.006 194.268 23.1186 174.653 59.0882C148.452 107.131 143.49 116.763 122.838 125.079Z" fill="#05396B"/>
<path fill-rule="evenodd" clip-rule="evenodd" d="M214.487 146.826L216.499 143.253L216.646 139.442C216.646 139.442 218.206 138.821 218.924 139.227C218.924 139.227 221.125 138.699 221.633 136.83C221.633 136.83 218.883 137.363 217.428 137.252C217.428 137.252 218.013 130.887 218.648 128.133C218.648 128.133 217.649 124.802 215.626 128.238C213.604 131.674 214.611 134.572 214.805 138.746C214.998 142.918 214.883 145.439 214.487 146.826Z" fill="white"/>
<path fill-rule="evenodd" clip-rule="evenodd" d="M194.401 165.503C194.401 165.503 192.716 164.672 194.043 162.235C194.331 161.706 193.48 161.791 192.966 161.356C192.099 160.621 191.082 159.48 190.038 159.243C190.038 159.243 185.871 159.977 187.56 158.242C189.251 156.507 192.626 157.812 194.014 159.489C194.014 159.489 196.276 155.134 194.285 148.758C192.443 142.858 191.446 141.624 191.109 139.18C191.109 139.18 189.046 140.143 187.525 139.598C186.006 139.053 185.271 138.743 184.298 138.514C183.326 138.285 184.096 136.704 185.931 137.068C187.765 137.433 190.27 137.6 190.425 136.427C190.425 136.427 187.397 133.038 190.647 129.529C194.627 125.231 204.355 123.702 204.36 127.818C204.365 131.934 202.822 135.82 201.653 143.256C200.485 150.692 200.531 161.477 200.63 164.1C200.728 166.722 200.683 167.705 198.426 167.192C196.168 166.68 195.807 167.036 194.401 165.503Z" fill="white"/>
<path fill-rule="evenodd" clip-rule="evenodd" d="M140.835 174.71C140.835 174.71 131.484 177.832 131.613 178.956C131.743 180.081 132.385 183.449 142.806 183.526C153.228 183.603 174.796 182.111 167.801 179.789C161.16 177.583 163.389 173.765 170.917 173.057C174.99 172.675 169.561 169.034 178.505 167.226C178.505 167.226 172.119 167.476 167.682 170.148C163.245 172.819 164.131 173.641 151.403 173.455C151.403 173.455 143.84 173.975 140.835 174.71Z" fill="white"/>
<path fill-rule="evenodd" clip-rule="evenodd" d="M219.233 170.117C219.233 170.117 228.45 171.681 225.718 173.797C222.988 175.914 238.457 175.116 238.485 178.164C238.515 181.212 227.828 182.336 235.784 186.263C243.741 190.19 259.785 192.065 266.198 185.747C266.198 185.747 270.935 183.779 261.393 180.577C248.827 176.36 243.541 177.058 234.267 173.462C234.267 173.462 226.559 170.105 219.233 170.117Z" fill="white"/>
<path fill-rule="evenodd" clip-rule="evenodd" d="M178.054 167.289C178.054 167.289 182.708 165.108 178.681 151.205C175.92 141.892 166.158 140.418 167.582 123.014C167.582 123.014 164.28 123.602 165.753 119.782C167.225 115.962 179.753 118.91 182.164 119.531C184.576 120.153 189.111 121.938 186.118 125.079C186.118 125.079 183.447 128.507 184.374 136.523C184.374 136.523 182.13 137.047 183.085 138.317C183.626 139.037 184.73 139.367 185.34 140.806C186.759 144.154 187.392 148.692 187.591 154.18C187.591 154.18 186.663 166.154 187.664 168.018C187.664 168.018 185.359 168.481 183.98 169.227C183.98 169.227 180.46 167.618 178.054 167.289Z" fill="white"/>
<path fill-rule="evenodd" clip-rule="evenodd" d="M214.233 170.102C214.233 170.102 212.401 161.57 215.915 150.118C219.428 138.667 227.586 135.915 225.708 123.602C225.708 123.602 219.379 124.084 222.091 120.505C222.091 120.505 234.668 115.805 241.646 117.863C241.646 117.863 247.776 119.066 245.073 123.465C245.073 123.465 244.077 125.239 243.442 129.203C242.806 133.166 237.103 136.843 231.157 144.755C225.211 152.669 221.263 161.45 222.908 170.461C222.908 170.461 214.419 170.044 214.233 170.102Z" fill="white"/>
<path fill-rule="evenodd" clip-rule="evenodd" d="M177.669 118.552C177.669 118.552 176.011 112.412 169.262 112.212L172.163 110.81C172.163 110.81 169.14 101.896 184.602 97.2472C200.065 92.598 194.819 87.0552 193.222 86.5383L192.524 85.3043C192.524 85.3043 199.234 85.8121 204.917 83.5218C204.917 83.5218 205.222 80.695 197.744 80.2896L197.455 79.5356C197.455 79.5356 205.528 77.3231 208.909 79.9075C208.909 79.9075 207.059 81.1356 207.467 82.4426C207.467 82.4426 207.65 83.5394 209.82 84.6014C209.82 84.6014 208.259 85.6112 208.746 87.5081C208.746 87.5081 209.327 90.5115 222.009 96.4016C234.691 102.292 239.172 102.313 238.416 107.903C238.416 107.903 240.777 108.14 241.806 108.957C241.806 108.957 234.473 110.587 234.134 116.216C234.134 116.216 231.829 117.302 228.649 117.002C228.649 117.002 234.566 109.809 224.764 106.736C224.764 106.736 214.736 104.729 213.383 115.659C213.383 115.659 213.887 112.057 212.235 110.769C212.235 110.769 212.543 113.659 210.126 113.591L197.763 113.692C197.763 113.692 195.229 113.713 196.298 110.746C196.298 110.746 192.01 112.291 190.936 117.247L190.576 118.335C190.576 118.335 190.643 108.472 181.316 107.469C173.059 106.581 175.523 114.788 178.306 116.978L179.772 118.867L177.669 118.552ZM188.316 103.595L186.024 103.43C186.024 103.43 184.62 100.489 187.303 99.2797C189.984 98.0706 186.755 101.994 189.203 102.329C191.652 102.665 192.388 101.726 191.878 100.837C191.368 99.9486 196.359 104.339 195.17 105.38C195.17 105.38 189.921 104.156 188.316 103.595ZM208.963 100.18C208.963 100.18 207.761 103.672 210.532 103.557C210.532 103.557 210.57 101.966 211.827 102.154L214.317 103.343C214.317 103.343 218.812 103.472 217.335 99.5636C217.335 99.5636 215.649 97.3106 215.093 97.4897C212.327 98.381 213.642 100.488 211.976 101.135C211.426 101.349 210.952 101.956 208.963 100.18Z" fill="white"/>
<ellipse cx="162.916" cy="92.1843" rx="11.214" ry="11.9512" fill="white"/>
<ellipse cx="146.314" cy="155.082" rx="2.44397" ry="2.74527" fill="white"/>
<ellipse cx="167.382" cy="156.435" rx="1.57799" ry="1.7744" fill="white"/>
<ellipse rx="2.44399" ry="2.74527" transform="matrix(-1 0 0 1 246.3 161.994)" fill="white"/>
<ellipse rx="1.57798" ry="1.77437" transform="matrix(-1 0 0 1 230.825 160.738)" fill="white"/>
<ellipse rx="1.13779" ry="0.792898" transform="matrix(0.974013 0.226492 -0.200486 0.979697 189.916 103.384)" fill="#FFB61D"/>
<ellipse rx="1.13436" ry="0.795018" transform="matrix(0.999406 -0.0344671 0.0303364 0.99954 211.989 102.803)" fill="#FFB61D"/>
<path fill-rule="evenodd" clip-rule="evenodd" d="M178.029 99.8811C180.786 98.3924 183.705 97.4598 186.562 96.3484C188.59 95.5593 190.575 94.6143 192.294 93.1927C193.257 92.3971 194.191 91.5412 194.737 90.2987C195.346 88.9134 194.75 87.8441 193.613 87.3747C193.077 87.1534 192.636 86.8429 192.245 86.4073C191.885 86.0064 192.012 85.1376 192.603 85.0365C192.837 84.9965 193.103 85.1435 193.349 85.2258C193.905 85.4122 194.814 84.9596 194.984 84.3874C195.202 83.6585 194.987 82.7593 194.449 82.4053C194.387 82.3649 194.379 82.2368 194.318 82.191C194.25 82.139 194.15 82.1339 194.063 82.1085C194.088 82.1858 194.139 82.2656 194.133 82.34C194.087 82.8947 194.037 83.4493 193.967 84.0009C193.958 84.0717 193.818 84.1901 193.761 84.1769C193.216 84.0519 192.19 82.762 192.145 82.1719C192.097 81.5411 192.511 80.9131 193.15 80.7276C193.88 80.5156 194.63 80.3801 195.354 80.1498C196.069 79.9225 196.637 79.5342 196.713 78.5964C196.731 78.3619 197.091 78.0227 197.34 77.969C198.307 77.7598 198.974 77.1378 199.56 76.3604C199.893 75.9194 200.313 75.7778 200.805 76.0036C200.929 76.0605 201.059 76.2023 201.099 76.335C201.124 76.418 200.989 76.559 200.918 76.6688C200.904 76.6907 200.852 76.6807 200.827 76.6994C200.65 76.8295 200.476 76.9633 200.301 77.0958C200.561 77.1344 200.83 77.2363 201.082 77.1998C201.839 77.0898 202.586 76.8591 203.345 76.8092C203.776 76.7809 204.273 76.9079 204.519 77.4279C204.571 77.5372 204.641 77.6364 204.703 77.7401C204.57 77.7588 204.436 77.7978 204.303 77.7927C203.526 77.7619 202.749 77.6796 201.972 77.6923C200.491 77.7167 199.132 78.2604 197.811 78.925C197.745 78.9584 197.702 79.0445 197.648 79.1061C197.73 79.1196 197.816 79.1551 197.895 79.143C198.591 79.0364 199.286 78.9257 199.981 78.8075C200.606 78.7011 201.226 78.5334 201.856 78.4827C202.858 78.402 203.869 78.3223 204.87 78.3757C206.431 78.4592 207.963 78.7643 209.391 79.4896C209.57 79.5801 209.763 79.7144 209.861 79.8859C209.963 80.0655 210.05 80.3642 209.976 80.5204C209.885 80.7116 209.618 80.9286 209.431 80.925C208.832 80.9134 208.476 81.2575 208.238 81.7512C208.007 82.2311 208.305 82.8195 208.636 83.3272C209.03 83.9307 209.612 83.9915 210.149 84.2043C210.727 84.4332 210.955 84.7597 210.815 85.3203C210.79 85.4193 210.639 85.5468 210.542 85.551C209.468 85.597 209.152 86.6265 209.448 87.5399C209.787 88.5847 210.657 89.0906 211.397 89.6871C213.33 91.2463 215.389 92.605 217.581 93.7211C217.625 93.7435 217.683 93.7406 217.718 93.7764C217.936 93.9977 219.645 94.9624 220.696 95.4115C222.075 96.0008 223.268 96.4092 224.621 96.9614C226.443 97.7046 228.261 98.459 230.055 99.2713C232.06 100.179 234.053 101.121 236.02 102.116C237.309 102.769 238.443 103.692 239.088 105.092C239.444 105.865 239.684 106.719 239.488 107.63C239.472 107.707 239.692 107.912 239.826 107.945C240.679 108.154 241.55 108.297 242.394 108.541C242.611 108.604 243.078 108.585 242.999 109.059C242.959 109.303 242.809 109.557 242.64 109.733C242.529 109.847 242.298 109.86 242.12 109.863C240.85 109.885 239.651 110.224 238.561 110.891C236.616 112.08 235.226 113.767 234.675 116.144C234.648 116.262 234.608 116.377 234.569 116.491C234.555 116.533 234.528 116.57 234.507 116.609C234.493 116.559 234.49 116.501 234.463 116.46C233.989 115.735 234.085 114.983 234.347 114.211C234.902 112.573 236.084 111.517 237.412 110.681C238.385 110.068 239.483 109.682 240.523 109.191C240.585 109.162 240.636 109.103 240.692 109.058C240.621 109.028 240.554 108.986 240.481 108.97C239.029 108.654 237.654 109.024 236.308 109.549C235.928 109.698 235.615 109.952 235.392 109.347C235.215 108.866 235.316 108.523 235.826 108.302C236.112 108.178 236.429 108.115 236.739 108.076C237.033 108.039 237.336 108.068 237.635 108.068C238.534 108.068 238.859 107.556 238.651 106.613C238.303 105.027 237.262 104.026 236.063 103.247C233.272 101.433 230.234 100.172 227.184 98.9437C224.692 97.9398 222.217 96.8833 219.752 95.8021C217.087 94.6328 214.606 93.1037 212.255 91.3247C211.612 90.8387 210.921 90.4971 210.032 90.7009C209.309 90.8668 208.946 91.3221 208.847 91.9601C208.75 92.5825 208.998 93.188 209.477 93.6347C210.093 94.2098 210.747 94.7481 211.308 95.3799C212.381 96.5881 212.033 98.3085 211.164 99.4394C210.718 100.019 210.128 100.321 209.476 100.535C209.385 100.565 209.251 100.686 209.252 100.763C209.268 101.773 209.558 102.679 210.22 103.424C210.275 103.486 210.358 103.52 210.427 103.567C210.454 103.472 210.499 103.378 210.505 103.282C210.577 102.192 211.502 101.506 212.466 101.891C212.996 102.103 213.512 102.393 213.984 102.73C215.142 103.559 217.153 102.741 217.293 101.233C217.39 100.195 216.845 98.9166 215.801 98.5738C215.646 98.523 215.472 98.485 215.35 98.3833C215.069 98.1504 214.657 97.9243 214.583 97.6177C214.465 97.1267 214.997 96.8799 215.316 96.8459C216.062 96.7662 216.834 96.7699 217.576 96.8877C218.913 97.1004 220.035 97.9066 220.951 98.8728C221.826 99.7966 222.509 100.963 222.742 102.319C222.829 102.825 222.826 103.349 222.855 103.865C222.887 104.442 222.514 104.604 222.097 104.567C221.345 104.499 220.599 104.363 219.853 104.239C219.261 104.141 218.677 103.958 218.083 103.917C216.922 103.837 215.75 103.73 214.594 103.812C211.872 104.002 209.207 104.528 206.705 105.764C206.278 105.975 205.84 106.164 205.416 106.382C204.663 106.77 203.919 106.459 203.651 105.611C203.322 104.574 203.698 103.701 204.245 102.874C205.165 101.481 206.626 100.982 207.978 100.305C208.924 99.831 209.862 99.3552 210.625 98.5564C211.335 97.814 211.317 97.0076 210.684 96.2877C209.734 95.2075 208.735 94.1753 207.741 93.1405C207.335 92.7181 206.821 92.8383 206.362 92.9964C204.209 93.7381 202.033 94.4236 200.055 95.6398C198.64 96.5101 197.405 97.6194 196.531 99.0922C196.041 99.917 195.741 100.89 196.377 101.822C196.626 102.187 196.959 102.512 197.31 102.768C197.987 103.265 198.732 103.659 199.396 104.174C199.975 104.623 200.163 105.328 199.714 105.938C199.457 106.288 198.921 106.514 198.482 106.582C197.272 106.766 196.118 106.307 194.959 106.031C193.1 105.587 191.269 104.995 189.4 104.607C188.313 104.381 187.173 104.332 186.063 104.379C184.658 104.438 183.279 104.763 182.017 105.485C181.693 105.671 181.439 105.589 181.206 105.346C180.903 105.031 180.859 104.624 181.019 104.246C181.441 103.248 182.042 102.384 182.908 101.769C184.036 100.968 185.164 100.166 186.323 99.4169C186.698 99.1741 187.112 98.9582 187.636 99.1211C188.007 99.2364 188.064 99.5318 188.071 99.7628C188.076 99.938 187.831 100.205 187.642 100.287C187.125 100.514 186.358 101.438 186.435 102.115C186.493 102.63 186.839 103.214 187.279 103.342C187.998 103.551 188.318 103.418 188.662 102.766C188.948 102.225 190.055 101.947 190.693 102.173C191.58 102.488 191.606 103.334 191.827 104.072C191.843 104.127 191.844 104.23 191.868 104.235C192.725 104.431 193.584 104.622 194.445 104.802C194.738 104.863 194.868 104.607 194.733 104.245C194.425 103.419 193.786 102.893 193.191 102.331C192.577 101.749 191.895 101.238 191.339 100.6C190.476 99.6091 190.476 98.2817 191.014 96.9496C191.492 95.7671 192.365 94.9326 193.297 94.2105C194.538 93.2489 195.835 92.3592 197.165 91.5425C198.55 90.6914 200.095 90.2781 201.66 89.9382C202.782 89.6942 203.878 89.3514 204.836 88.6079C205.783 87.8728 206.391 85.8103 205.931 84.6755C205.687 84.0719 205.383 83.965 204.83 84.2403C203.817 84.7438 202.746 85.0182 201.633 85.1141C201.529 85.123 201.429 85.1776 201.327 85.211C201.409 85.284 201.48 85.3848 201.575 85.4257C202.475 85.8158 203.199 86.4387 203.738 87.296C203.956 87.6431 204.1 88.031 203.856 88.4397C203.793 88.5456 203.684 88.621 203.597 88.7104C203.544 88.6224 203.481 88.5393 203.439 88.4457C202.765 86.9656 201.534 86.2631 200.133 85.9147C198.023 85.3901 195.921 85.6539 193.848 86.24C193.801 86.2533 193.768 86.3236 193.728 86.3674C193.779 86.3987 193.828 86.4482 193.882 86.4586C195.047 86.6789 195.689 87.9429 195.851 88.8066C196.124 90.263 195.511 91.3628 194.672 92.3603C193.743 93.4649 192.55 94.1953 191.348 94.9251C188.615 96.5844 185.645 97.6275 182.742 98.8561C180.455 99.824 178.146 100.768 176.122 102.325C174.606 103.492 173.386 104.932 172.97 106.893C172.662 108.346 172.613 109.873 173.497 111.219C173.525 111.262 173.388 111.521 173.298 111.544C172.623 111.717 171.94 111.854 171.261 112.01C171.181 112.029 171.112 112.096 171.038 112.14C171.107 112.171 171.175 112.22 171.247 112.229C173.215 112.478 174.886 113.393 176.406 114.721C176.955 115.201 177.377 115.766 177.794 116.352C177.929 116.541 178.051 116.776 178.085 117.005C178.13 117.316 178.076 117.62 177.686 117.698C177.414 117.752 177.262 117.812 177.093 117.426C176.521 116.114 175.552 115.149 174.425 114.375C172.967 113.374 171.353 112.951 169.624 113.022C169.492 113.027 169.358 113.055 169.23 113.093C168.667 113.26 168.289 113.077 168.111 112.544C167.969 112.116 168.277 111.49 168.754 111.341C169.135 111.221 169.535 111.151 169.931 111.115C170.35 111.077 170.775 111.11 171.197 111.106C171.834 111.1 171.831 111.018 171.79 110.302C171.714 108.962 171.793 107.644 172.257 106.352C172.797 104.847 173.677 103.574 174.658 102.422C175.359 101.598 176.356 101.058 177.229 100.403C177.474 100.219 177.744 100.073 178.029 99.8811ZM209.083 90.2873C209.5 89.8616 209.597 89.4759 209.19 88.9097C208.29 87.6581 208.298 86.2741 209.057 84.9683C209.314 84.5257 209.089 84.5252 208.873 84.4431C207.116 83.7733 206.739 81.6996 207.998 80.3055C208.077 80.218 208.171 80.1453 208.257 80.0658C208.131 79.9843 208.012 79.8544 207.876 79.8296C207.166 79.6996 206.455 79.5739 205.739 79.4896C204.892 79.3898 204.04 79.2771 203.189 79.2752C202.392 79.2734 201.591 79.3794 200.798 79.4921C200.008 79.6044 199.225 79.7815 198.441 79.9388C198.383 79.9505 198.337 80.0324 198.286 80.0815C198.351 80.1074 198.414 80.1524 198.48 80.1561C199.239 80.1982 199.998 80.2319 200.757 80.2721C201.862 80.3307 202.919 80.6615 203.88 81.1919C205.381 82.0202 206.429 83.3336 206.852 85.107C207.298 86.9783 207.081 88.0893 205.594 89.174C204.508 89.9661 203.262 90.3217 202.034 90.742C200.67 91.2093 199.264 91.5929 197.972 92.2328C196.58 92.9223 195.286 93.8441 193.975 94.7079C193.156 95.2466 192.358 95.8441 191.905 96.7969C191.568 97.505 191.38 98.2353 191.608 99.0544C191.923 100.182 192.685 100.892 193.525 101.535C193.87 101.798 194.246 102.028 194.635 102.205C194.963 102.353 195.228 102.168 195.172 101.901C194.958 100.877 195.114 99.8995 195.553 98.9831C196.567 96.8663 198.275 95.533 200.183 94.4568C201.875 93.5025 203.694 92.8937 205.52 92.3054C206.802 91.8926 208.059 91.4004 209.083 90.2873ZM219.215 103.117C219.819 103.235 220.427 103.33 221.024 103.481C221.348 103.563 221.505 103.403 221.582 103.141C221.684 102.789 221.763 102.422 221.793 102.057C221.845 101.437 221.748 100.827 221.356 100.347C220.595 99.4143 219.703 98.6427 218.621 98.176C218.124 97.9616 217.585 97.8519 217.059 97.7273C216.968 97.7059 216.844 97.848 216.735 97.9147C216.793 97.9982 216.834 98.1163 216.912 98.1594C217.439 98.4516 217.67 99.0112 217.878 99.5252C218.246 100.433 218.292 101.391 217.941 102.346C217.84 102.619 217.867 102.863 218.248 102.901C218.539 102.93 218.822 103.042 219.215 103.117ZM200.904 81.7911C200.917 81.7028 200.942 81.6141 200.939 81.5263C200.934 81.3705 200.913 81.2152 200.899 81.0597C200.76 81.1507 200.58 81.2108 200.494 81.3415C200.406 81.4744 200.385 81.6761 200.382 81.8489C200.369 82.4363 200.397 83.0254 200.369 83.6116C200.351 83.9778 200.128 84.2949 199.782 84.1771C199.609 84.1184 199.486 83.72 199.438 83.4551C199.313 82.7711 199.252 82.0743 199.144 81.3864C199.125 81.2679 199.002 81.168 198.927 81.0597C198.847 81.1953 198.693 81.3363 198.701 81.4658C198.736 82.0206 198.858 82.5712 198.867 83.1248C198.872 83.4101 198.786 83.8241 198.601 83.9582C198.26 84.2042 198.018 83.8947 197.938 83.3446C197.845 82.7054 197.677 82.0771 197.513 81.4524C197.483 81.3385 197.32 81.2646 197.218 81.1722C197.18 81.2931 197.102 81.4177 197.112 81.5341C197.169 82.217 197.251 82.8974 197.313 83.5797C197.332 83.7905 197.368 84.0286 197.295 84.2076C197.257 84.2997 196.999 84.2995 196.839 84.3189C196.791 84.3247 196.717 84.2691 196.686 84.2196C196.277 83.5776 196.655 82.6375 195.977 82.0931C195.903 82.0335 195.855 81.9367 195.795 81.8571C195.774 81.9353 195.733 82.0145 195.736 82.0914C195.766 82.7138 195.77 83.3404 195.846 83.9567C195.962 84.8889 195.989 84.9465 196.819 84.8729C198.438 84.7295 200.052 84.516 201.666 84.3213C202.736 84.1922 203.769 83.9141 204.714 83.3428C204.781 83.302 204.843 83.0856 204.811 83.0482C204.195 82.3461 203.4 81.9392 202.568 81.6398C202.261 81.5294 201.911 81.6528 201.962 82.1546C201.98 82.3286 202.05 82.4975 202.061 82.6713C202.086 83.0587 201.988 83.4686 201.602 83.4981C201.418 83.5122 201.129 83.1649 201.03 82.9167C200.91 82.6146 200.94 82.2444 200.904 81.7911ZM206.973 104.467C207.435 104.348 207.895 104.213 208.362 104.117C208.691 104.049 208.803 103.922 208.663 103.56C208.419 102.927 208.272 102.282 208.494 101.588C208.604 101.245 208.404 101.082 208.112 101.238C207.031 101.816 205.923 102.362 205.085 103.336C204.619 103.876 204.587 104.438 204.823 104.908C204.889 105.037 205.158 105.167 205.281 105.125C205.82 104.94 206.34 104.692 206.973 104.467ZM184.283 101.654C183.617 102.25 182.933 102.826 182.301 103.46C182.156 103.606 182.187 103.952 182.138 104.206C182.283 104.15 182.427 104.092 182.573 104.041C182.62 104.025 182.672 104.026 182.722 104.017C183.561 103.867 184.397 103.691 185.24 103.577C185.745 103.508 185.847 103.387 185.667 102.897C185.583 102.671 185.511 102.425 185.503 102.185C185.466 101.021 185.416 100.986 184.463 101.575C184.434 101.593 184.413 101.627 184.283 101.654ZM198.002 104.129C197.587 104.024 197.138 103.992 196.764 103.798C196.105 103.455 196.022 103.447 195.859 104.172C195.812 104.383 195.807 104.623 195.851 104.834C195.882 104.988 196.013 105.224 196.121 105.237C196.965 105.343 197.814 105.412 198.662 105.466C198.736 105.471 198.882 105.295 198.889 105.194C198.935 104.567 198.442 104.422 198.002 104.129ZM190.615 103.905C190.829 104.019 191.141 104.198 191.173 103.808C191.218 103.273 190.278 102.803 189.879 103.132C189.797 103.201 189.786 103.41 189.796 103.549C189.803 103.635 189.898 103.752 189.978 103.783C190.147 103.849 190.331 103.867 190.615 103.905ZM212.83 103.173C212.802 102.699 212.494 102.533 212.123 102.813C212.013 102.897 211.96 103.068 211.88 103.199C212.02 103.247 212.159 103.329 212.299 103.332C212.458 103.335 212.618 103.267 212.83 103.173Z" fill="#00160A"/>
<path fill-rule="evenodd" clip-rule="evenodd" d="M204.308 135.217C203.946 136.466 203.574 137.677 203.283 138.91C202.913 140.479 202.552 142.054 202.292 143.647C202.012 145.36 201.836 147.093 201.65 148.823C201.542 149.818 201.486 150.822 201.436 151.823C201.382 152.932 201.356 154.043 201.328 155.153C201.288 156.693 201.228 158.235 201.229 159.776C201.229 161.355 201.235 162.938 201.348 164.51C201.411 165.384 201.485 166.233 201.217 167.071C201.075 167.516 200.764 167.813 200.319 167.817C198.454 167.834 196.603 167.628 194.826 167.021C193.336 166.511 192.482 165.287 192.695 163.762C192.812 162.92 192.701 162.137 192.327 161.477C191.745 160.451 190.906 159.715 189.668 159.715C189.086 159.714 188.518 159.732 187.998 160.04C187.659 160.24 187.321 160.238 187.087 159.919C186.666 159.342 186.684 158.949 186.977 158.527C187.433 157.867 188.113 157.614 188.79 157.493C190.033 157.274 191.295 157.201 192.517 157.695C193.657 158.156 194.481 158.967 194.755 160.247C194.832 160.606 194.653 161.102 194.449 161.439C194.051 162.096 193.753 162.771 193.568 163.532C193.376 164.322 193.788 165.646 194.669 165.965C195.099 166.12 195.194 166.062 195.207 165.575C195.236 164.502 195.262 163.43 195.315 162.358C195.368 161.263 195.479 160.171 195.516 159.076C195.604 156.5 195.758 153.922 195.705 151.348C195.656 148.9 195.093 146.521 194.241 144.242C193.309 141.747 192.295 139.286 191.395 136.778C191.097 135.949 190.934 135.025 190.9 134.135C190.82 132.027 191.731 130.387 193.418 129.361C194.785 128.531 196.263 127.91 197.694 127.201C198.018 127.04 198.352 126.902 198.678 126.746C198.726 126.723 198.755 126.658 198.794 126.613C198.738 126.621 198.682 126.634 198.626 126.636C197.082 126.692 195.609 127.119 194.217 127.782C193.25 128.243 192.337 128.856 191.449 129.481C190.588 130.087 189.914 130.927 189.405 131.88C188.823 132.968 188.427 134.125 189.086 135.337C189.291 135.714 189.641 136.013 189.958 136.309C190.352 136.678 190.863 136.937 191.177 137.366C191.768 138.172 191.623 138.893 190.871 139.582C190.847 139.604 190.863 139.693 190.879 139.745C191.299 141.097 191.694 142.459 192.151 143.797C192.797 145.686 193.538 147.539 194.14 149.443C194.461 150.455 194.599 151.536 194.778 152.594C195.043 154.168 194.928 155.717 194.352 157.204C194.293 157.357 194.125 157.525 193.984 157.555C193.898 157.573 193.68 157.349 193.669 157.22C193.643 156.908 193.699 156.586 193.729 156.269C193.796 155.55 193.918 154.832 193.929 154.112C193.963 151.967 193.529 149.901 192.82 147.91C192.318 146.502 191.714 145.136 191.151 143.752C190.853 143.021 190.524 142.303 190.257 141.56C190.151 141.266 190.154 140.921 190.146 140.598C190.141 140.365 190.145 140.225 189.851 140.246C188.514 140.343 187.314 139.822 186.109 139.293C185.718 139.122 185.271 139.069 184.844 139.023C184.109 138.945 183.632 138.084 183.996 137.414C184.243 136.959 184.643 136.932 185.113 136.822C186.126 136.585 186.865 137.53 187.815 137.327C188.172 137.251 188.528 137.151 188.889 137.11C189.193 137.076 189.148 136.961 188.975 136.823C187.75 135.842 187.62 134.502 187.969 133.073C188.516 130.832 189.954 129.309 191.724 128.102C193.497 126.894 195.444 126.178 197.502 125.716C199.145 125.348 200.792 125.364 202.439 125.422C203.309 125.452 204.256 125.581 204.701 126.595C204.906 127.063 205.042 127.584 205.116 128.096C205.378 129.909 205.189 131.689 204.711 133.444C204.555 134.016 204.458 134.607 204.308 135.217ZM196.366 148.637C196.472 149.472 196.659 150.306 196.666 151.141C196.683 153.075 196.63 155.011 196.571 156.945C196.534 158.19 196.439 159.433 196.365 160.677C196.337 161.15 196.293 161.621 196.261 162.094C196.189 163.168 196.081 164.243 196.063 165.319C196.049 166.102 196.349 166.537 197.02 166.645C197.977 166.798 198.95 166.86 199.917 166.889C200.264 166.9 200.522 166.712 200.5 166.173C200.419 164.183 200.383 162.192 200.384 160.201C200.385 158.078 200.441 155.957 200.485 153.835C200.499 153.175 200.54 152.515 200.59 151.856C200.724 150.118 200.844 148.377 201.018 146.643C201.153 145.291 201.275 143.926 201.557 142.605C202.023 140.425 202.519 138.242 203.176 136.121C203.958 133.598 204.269 131.038 204.162 128.409C204.131 127.641 204.053 126.768 203.154 126.541C202.538 126.385 201.885 126.333 201.251 126.35C200.972 126.357 200.556 126.396 200.474 126.9C200.392 127.402 199.959 127.524 199.584 127.642C198.454 127.998 197.279 128.225 196.191 128.69C195.107 129.153 194.021 129.719 193.091 130.461C191.719 131.556 191.634 133.272 191.858 134.885C192.184 137.222 193.156 139.357 194.043 141.506C194.54 142.712 195.078 143.903 195.492 145.141C195.859 146.24 196.08 147.394 196.366 148.637ZM190.509 139.015C190.534 138.989 190.56 138.964 190.583 138.936C190.934 138.505 190.986 138.075 190.684 137.748C190.346 137.381 190.035 137.511 189.703 137.826C189.533 137.988 189.261 138.035 189.029 138.113C188.25 138.373 187.527 138.034 186.789 137.862C186.148 137.712 185.52 137.372 184.846 137.672C184.732 137.722 184.653 137.86 184.558 137.958C184.66 138.048 184.75 138.182 184.868 138.221C186.055 138.607 187.24 139.008 188.44 139.341C189.124 139.531 189.837 139.605 190.509 139.015ZM190.773 158.09C190.177 158.185 189.579 158.264 188.986 158.38C188.833 158.411 188.699 158.551 188.557 158.641C188.686 158.701 188.813 158.804 188.946 158.815C189.913 158.903 190.854 159.069 191.657 159.711C192.115 160.075 192.537 160.503 193.03 160.799C193.256 160.934 193.614 160.821 193.911 160.82C193.901 160.565 193.975 160.25 193.862 160.065C193.622 159.67 193.266 159.357 192.989 158.984C192.43 158.23 191.68 158.006 190.773 158.09Z" fill="#FFB61D"/>
<path fill-rule="evenodd" clip-rule="evenodd" d="M223.621 123.514C224.107 123.22 224.559 122.938 225.028 122.694C225.535 122.431 226.056 122.574 226.244 122.991C226.44 123.425 226.178 123.855 225.737 123.823C224.971 123.767 224.642 124.075 224.654 124.892C224.672 126.115 224.743 127.336 224.751 128.559C224.761 130.556 224.288 132.45 223.595 134.291C222.762 136.507 221.432 138.39 220.136 140.307C218.946 142.068 217.768 143.853 216.758 145.734C215.43 148.212 214.564 150.905 214.102 153.726C213.891 155.011 213.696 156.303 213.581 157.6C213.454 159.045 213.327 160.504 213.383 161.949C213.452 163.732 213.704 165.508 213.889 167.286C213.932 167.709 214.038 168.126 214.076 168.549C214.086 168.657 213.969 168.853 213.876 168.883C213.714 168.934 213.45 168.963 213.362 168.866C213.174 168.659 213.021 168.38 212.948 168.103C212.858 167.76 212.851 167.389 212.832 167.028C212.756 165.578 212.678 164.127 212.622 162.677C212.571 161.38 212.463 160.077 212.533 158.787C212.635 156.893 212.732 154.99 213.236 153.142C213.538 152.031 213.638 150.847 214.021 149.773C214.411 148.676 215.007 147.654 215.567 146.634C216.017 145.815 216.595 145.074 217.029 144.247C217.354 143.627 217.49 142.896 217.805 142.268C218.1 141.677 218.501 141.14 218.889 140.609C219.42 139.883 220.019 139.211 220.524 138.466C221.036 137.713 221.523 136.929 221.923 136.104C222.362 135.199 222.78 134.259 223.044 133.284C223.383 132.034 223.634 130.743 223.784 129.451C223.922 128.261 223.895 127.048 223.905 125.844C223.913 124.976 223.427 124.499 222.617 124.498C221.836 124.498 221.095 123.672 221.055 122.831C220.994 121.562 221.599 120.732 222.546 120.111C223.628 119.402 224.861 119.16 226.075 118.876C227.03 118.653 227.994 118.466 228.955 118.278C229.727 118.127 230.499 117.993 231.274 117.86C232.181 117.704 233.09 117.548 234.001 117.412C234.637 117.318 235.277 117.237 235.917 117.188C237.118 117.097 238.322 116.951 239.522 116.978C241.224 117.016 242.902 117.301 244.422 118.2C245.889 119.067 246.824 120.31 246.699 122.204C246.652 122.923 246.452 123.651 245.872 124.063C245.227 124.521 245.096 125.207 244.915 125.894C244.486 127.525 244.151 129.19 243.614 130.779C243.308 131.684 242.787 132.568 242.178 133.282C240.393 135.375 238.505 137.366 236.679 139.418C235.478 140.77 234.286 142.134 233.137 143.537C231.071 146.061 229.128 148.698 227.518 151.576C226.149 154.023 224.945 156.577 224.225 159.344C223.86 160.747 223.548 162.169 223.289 163.599C223.004 165.175 222.869 166.774 223.013 168.385C223.015 168.412 223.035 168.438 223.047 168.465C222.981 168.476 222.916 168.497 222.85 168.498C222.676 168.499 222.47 168.551 222.338 168.47C222.221 168.399 222.13 168.176 222.126 168.018C222.107 167.138 222.062 166.251 222.132 165.375C222.208 164.419 222.342 163.459 222.552 162.526C222.906 160.947 223.242 159.349 223.767 157.832C224.34 156.178 225.028 154.55 225.834 153.011C226.823 151.126 227.902 149.279 229.099 147.537C230.363 145.697 231.79 143.982 233.187 142.25C234.09 141.129 235.056 140.063 236.018 138.998C237.535 137.317 239.077 135.66 240.602 133.988C242.338 132.086 243.334 129.775 243.853 127.211C243.99 126.533 244.089 125.845 244.168 125.157C244.24 124.524 243.93 124.029 243.567 123.569C242.802 122.6 241.749 122.177 240.639 122.045C238.968 121.846 237.279 121.676 235.603 121.719C233.897 121.762 232.179 121.924 230.519 122.454C229.609 122.744 228.689 123 227.767 123.242C227.607 123.285 227.367 123.243 227.246 123.134C227.052 122.96 226.789 122.726 227.289 122.517C228.806 121.883 230.361 121.424 231.967 121.104C233.801 120.739 235.646 120.701 237.483 120.809C239.67 120.938 241.803 121.469 243.858 122.305C244.207 122.447 244.546 122.631 244.905 122.731C245.165 122.804 245.612 122.889 245.695 122.761C245.875 122.484 246.009 122.032 245.925 121.726C245.414 119.855 244.144 118.821 242.438 118.307C240.938 117.855 239.4 117.79 237.864 117.875C236.512 117.949 235.165 118.148 233.818 118.312C232.731 118.445 231.642 118.571 230.564 118.768C229.127 119.031 227.689 119.306 226.274 119.676C225.168 119.966 224.076 120.349 223.022 120.806C222.339 121.102 221.898 121.657 221.882 122.582C221.863 123.687 222.695 123.885 223.413 123.622C223.475 123.599 223.534 123.569 223.621 123.514Z" fill="#00160A"/>
<path fill-rule="evenodd" clip-rule="evenodd" d="M178.399 148.947C178.917 150.314 179.498 151.625 179.878 153C180.269 154.417 180.523 155.885 180.728 157.348C180.89 158.503 180.95 159.684 180.943 160.854C180.934 162.581 180.692 164.291 180.325 165.975C180.258 166.284 180.048 166.443 179.816 166.278C179.668 166.171 179.566 165.859 179.58 165.65C179.705 163.856 179.954 162.067 179.981 160.273C180.008 158.551 179.745 156.845 179.399 155.146C178.962 152.997 178.265 150.961 177.355 149.011C176.585 147.36 175.61 145.837 174.484 144.424C173.276 142.906 172.038 141.405 170.952 139.791C169.669 137.886 168.772 135.744 168.201 133.474C167.88 132.198 167.627 130.892 167.468 129.582C167.31 128.275 167.333 126.944 167.229 125.627C167.162 124.784 166.918 124.017 166.174 123.524C164.619 122.496 165.021 120.591 165.797 119.469C166.459 118.511 167.484 118.114 168.526 117.997C170.07 117.822 171.633 117.737 173.185 117.771C174.571 117.802 175.962 117.984 177.335 118.212C178.955 118.481 180.581 118.781 182.161 119.237C183.521 119.629 184.844 120.201 186.139 120.803C187.148 121.272 187.874 122.133 187.782 123.378C187.738 123.979 187.354 124.57 187.058 125.126C186.506 126.163 186.213 127.275 186.016 128.439C185.742 130.053 185.702 131.676 185.7 133.308C185.698 134.347 185.739 135.373 186.023 136.375C186.036 136.421 185.995 136.484 185.979 136.539C185.558 136.397 185.13 136.387 185.148 135.641C185.171 134.716 184.907 133.787 184.875 132.856C184.797 130.609 185.208 128.422 185.708 126.252C185.813 125.794 185.675 125.405 185.318 125.183C184.543 124.701 183.761 124.217 182.94 123.836C181.6 123.214 180.243 122.621 178.86 122.119C178.067 121.832 177.212 121.722 176.379 121.577C173.774 121.123 171.424 122.052 169.113 123.151C168.474 123.454 168.135 124.006 168.084 124.749C168.041 125.371 167.946 125.999 167.99 126.614C168.087 127.962 168.198 129.316 168.417 130.646C168.614 131.85 168.884 133.055 169.26 134.209C169.992 136.458 171.066 138.521 172.474 140.386C174.083 142.518 175.681 144.661 177.241 146.835C177.695 147.467 177.999 148.221 178.399 148.947ZM166.922 119.716C166.7 119.952 166.459 120.171 166.261 120.428C165.892 120.906 165.864 121.992 166.183 122.511C166.427 122.908 167.168 123.07 167.813 122.807C168.769 122.418 169.707 121.98 170.656 121.574C171.798 121.087 172.96 120.684 174.208 120.673C174.847 120.668 175.488 120.639 176.124 120.682C176.709 120.721 177.301 120.788 177.869 120.936C179.649 121.399 181.341 122.117 182.958 123.035C183.886 123.561 184.856 123.962 185.895 124.164C186.437 124.27 187.047 123.926 187.062 123.382C187.079 122.796 186.866 122.196 186.363 121.928C185.332 121.381 184.275 120.872 183.191 120.462C181.482 119.815 179.73 119.309 177.919 119.101C176.131 118.895 174.341 118.689 172.547 118.55C171.813 118.493 171.066 118.607 170.325 118.647C169.136 118.711 167.982 118.913 166.922 119.716Z" fill="#00160A"/>
<path fill-rule="evenodd" clip-rule="evenodd" d="M206.26 113.441C207.581 113.395 208.875 113.391 210.169 113.349C210.627 113.334 211.101 113.33 211.469 112.914C211.733 112.617 211.755 112.081 211.451 111.83C210.953 111.42 210.771 110.779 211.037 110.373C211.221 110.092 212.21 109.989 212.571 110.212C213.093 110.533 213.377 111.049 213.565 111.629C213.771 112.271 213.947 112.924 214.14 113.57C214.164 113.652 214.213 113.725 214.25 113.802C214.304 113.736 214.373 113.677 214.411 113.601C215.469 111.483 217.109 110.109 219.236 109.403C221.552 108.636 223.739 108.982 225.845 110.274C226.958 110.957 227.842 111.832 228.408 113.044C229.076 114.469 228.959 115.95 228.541 117.421C228.497 117.578 228.273 117.677 228.133 117.803C228.027 117.549 227.795 117.27 227.835 117.047C228.149 115.332 227.656 113.838 226.73 112.498C225.26 110.368 223.151 109.738 220.814 110.004C218.497 110.268 216.723 111.601 215.354 113.601C214.686 114.578 214.23 115.643 213.882 116.78C213.724 117.295 213.272 117.516 212.855 117.421C212.487 117.338 212.559 117.117 212.621 116.881C212.825 116.109 213.148 115.352 213.218 114.568C213.276 113.919 213.042 113.239 212.933 112.574C212.927 112.538 212.887 112.509 212.863 112.477C212.817 112.55 212.758 112.618 212.726 112.698C212.487 113.3 212.101 113.762 211.53 113.999C211.211 114.132 210.861 114.235 210.521 114.246C209.537 114.278 208.552 114.248 207.567 114.259C204.556 114.292 201.546 114.353 198.535 114.354C197.832 114.355 197.107 114.275 196.482 113.812C195.883 113.367 195.608 112.757 195.734 112.024C195.747 111.948 195.781 111.877 195.806 111.803C195.733 111.828 195.655 111.843 195.589 111.881C193.995 112.802 192.842 114.143 192.26 115.986C192.056 116.633 191.996 117.33 191.818 117.988C191.7 118.427 191.604 118.94 191.099 119.091C190.548 119.255 190.234 118.889 190.135 118.09C189.926 116.395 189.27 114.905 188.281 113.564C187.241 112.154 185.975 111.054 184.422 110.365C182.743 109.62 181.024 109.38 179.343 110.331C178.441 110.842 177.699 112.088 177.971 113.44C178.235 114.755 178.939 115.709 179.688 116.687C179.865 116.917 180.079 117.235 180.058 117.493C180.018 118.001 179.396 118.184 179.049 117.763C178.65 117.277 178.289 116.721 178.045 116.132C177.712 115.324 177.478 114.466 177.25 113.615C176.908 112.34 177.396 110.38 178.798 109.61C180.389 108.736 181.97 108.686 183.655 109.181C185.616 109.758 187.243 110.882 188.596 112.459C189.608 113.638 190.357 115.003 190.775 116.556C190.802 116.654 190.869 116.739 190.917 116.83C190.942 116.739 190.96 116.645 190.992 116.557C191.923 113.987 193.43 111.948 195.768 110.682C195.983 110.565 196.225 110.48 196.463 110.438C196.976 110.347 197.311 110.811 197.137 111.35C197.068 111.563 196.969 111.764 196.895 111.975C196.626 112.735 196.768 113.18 197.625 113.356C197.659 113.363 197.696 113.357 197.731 113.357C200.565 113.395 203.399 113.432 206.26 113.441Z" fill="#00160A"/>
<path fill-rule="evenodd" clip-rule="evenodd" d="M199.491 168.627C199.604 168.659 199.669 168.716 199.736 168.718C200.813 168.755 201.891 168.796 202.968 168.804C203.117 168.805 203.327 168.669 203.406 168.537C203.793 167.883 204.4 167.781 204.982 168.279C205.373 168.612 205.774 168.942 206.208 169.213C206.739 169.546 206.859 169.443 206.898 168.824C206.922 168.433 206.578 168.012 206.966 167.656C207.115 167.52 207.308 167.432 207.481 167.322C207.505 167.36 207.538 167.394 207.551 167.436C207.935 168.69 209.036 169.022 210.003 169.099C211.13 169.188 212.128 168.697 213.166 168.38C213.73 168.207 214.308 168.04 214.892 167.979C215.517 167.913 215.714 168.242 215.408 168.77C215.254 169.035 215.188 169.107 215.571 169.109C217.025 169.114 218.263 168.593 219.316 167.616C219.493 167.451 219.504 167.56 219.556 167.685C219.781 168.221 219.737 168.732 219.432 169.229C219.398 169.284 219.439 169.46 219.476 169.47C219.761 169.553 220.051 169.647 220.343 169.662C220.888 169.689 221.45 169.617 221.928 169.961C222.06 170.055 222.146 170.213 222.253 170.342C222.115 170.371 221.977 170.421 221.838 170.427C220.855 170.464 219.873 170.516 218.89 170.514C218.472 170.513 218.029 170.429 217.951 169.873C217.942 169.809 217.918 169.739 217.933 169.679C217.965 169.557 218.018 169.44 218.062 169.321C217.932 169.368 217.802 169.418 217.671 169.462C216.866 169.731 216.066 170.021 215.251 170.256C214.954 170.34 214.609 170.342 214.302 170.29C213.814 170.205 213.856 169.766 213.925 169.441C213.987 169.148 213.958 169.094 213.669 169.096C212.557 169.105 211.612 169.518 210.755 170.203C210.482 170.421 210.158 170.583 209.842 170.741C209.476 170.924 209.131 170.815 208.917 170.497C208.727 170.214 208.821 169.946 209.08 169.682C209.292 169.465 209.005 169.305 208.842 169.309C208.635 169.313 208.354 169.383 208.238 169.53C207.767 170.127 207.183 170.078 206.544 169.948C205.695 169.776 204.842 169.616 203.985 169.485C202.837 169.309 201.684 169.157 200.531 169.01C200.104 168.956 199.673 168.924 199.243 168.915C197.391 168.875 195.539 168.804 193.688 168.832C192.319 168.852 190.939 168.919 189.59 169.134C188.779 169.263 188.096 169.072 187.404 168.793C187.238 168.726 187.101 168.405 187.084 168.19C187.056 167.851 186.87 167.941 186.71 167.993C185.441 168.399 184.183 168.844 182.904 169.218C182.226 169.416 182.101 169.358 181.75 168.752C181.712 168.687 181.568 168.613 181.522 168.636C180.988 168.909 180.55 168.633 180.138 168.373C179.541 167.996 178.918 167.766 178.204 167.77C175.744 167.783 173.355 168.206 171.036 169.015C170.652 169.148 170.302 169.38 169.942 169.577C169.705 169.708 169.521 169.692 169.354 169.461C169.19 169.233 169.087 168.991 169.266 168.748C169.555 168.354 169.977 168.144 170.447 168.061C171.6 167.859 172.753 167.663 173.91 167.496C174.413 167.423 174.927 167.426 175.435 167.393C175.542 167.387 175.65 167.377 175.757 167.37C175.705 167.271 175.657 167.17 175.601 167.074C175.55 166.984 175.507 166.878 175.432 166.814C175.093 166.527 175.11 166.04 175.274 165.838C175.423 165.657 175.96 165.642 176.247 165.754C177.348 166.185 178.418 166.693 179.498 167.177C179.745 167.288 179.744 167.296 179.764 167.009C179.798 166.485 180.352 166.159 180.836 166.448C181.314 166.734 181.744 167.109 182.164 167.48C182.662 167.919 183.264 168.049 183.86 167.946C185.184 167.717 186.485 167.346 187.847 167.394C188.693 167.424 189.539 167.453 190.384 167.492C190.498 167.498 190.621 167.537 190.719 167.594C190.811 167.647 190.876 167.744 190.952 167.823C190.848 167.838 190.744 167.855 190.639 167.868C189.856 167.963 189.074 168.058 188.291 168.153C188.233 168.161 188.176 168.179 188.118 168.191C188.184 168.21 188.249 168.243 188.315 168.245C189.535 168.28 190.755 168.303 191.974 168.344C193.624 168.4 195.273 168.469 196.922 168.532C197.762 168.564 198.603 168.595 199.491 168.627Z" fill="#00160A"/>
<path fill-rule="evenodd" clip-rule="evenodd" d="M131.949 94.8559C131.209 94.6534 130.498 94.4487 129.775 94.3018C128.725 94.0883 127.703 94.2008 126.711 94.6346C125.461 95.1814 124.567 96.0801 123.958 97.2895C123.875 97.4558 123.737 97.6437 123.577 97.7128C123.243 97.8579 122.838 97.451 122.951 97.0836C123.032 96.8211 123.157 96.5595 123.317 96.3366C123.996 95.3907 124.922 94.7246 125.968 94.272C126.663 93.9711 127.43 93.8217 128.175 93.6524C129.413 93.3711 130.572 93.7462 131.761 94.0577C132.474 94.2446 133.295 94.2333 134.027 94.0944C135.428 93.8282 136.779 93.7452 138.129 94.3063C139.989 95.0801 141.876 95.7933 143.721 96.6026C144.312 96.8619 144.889 97.2662 145.328 97.7383C146.779 99.298 148.624 100.016 150.645 100.374C152.127 100.637 153.635 100.76 155.106 101.067C156.295 101.314 157.465 101.689 158.608 102.105C159.717 102.509 160.774 103.057 161.867 103.507C162.792 103.888 163.122 104.611 163.122 105.537C163.122 105.998 163.098 106.465 163.026 106.92C162.881 107.837 162.043 108.296 161.073 108.055C159.266 107.606 157.457 107.162 155.642 106.744C154.543 106.491 153.713 106.885 153.091 108.137C151.982 110.364 150.15 111.845 148.161 113.188C147.484 113.645 146.823 114.143 146.094 114.498C145.442 114.815 144.72 115.078 144.006 115.157C142.668 115.306 141.337 115.168 140.117 114.505C139.943 114.411 139.748 114.333 139.613 114.197C139.379 113.961 139.298 113.612 139.564 113.405C139.86 113.175 140.246 113.22 140.578 113.449C140.959 113.71 141.316 114.031 141.733 114.209C143.281 114.872 144.973 114.713 146.298 113.562C147.115 112.853 147.984 112.226 148.969 111.765C149.967 111.298 150.838 110.675 151.338 109.654C151.595 109.13 151.819 108.589 152.028 108.043C152.42 107.017 153.496 106.01 154.725 106.051C155.904 106.09 157.029 106.362 158.169 106.576C159.411 106.809 160.64 107.113 161.887 107.305C162.04 107.329 162.384 106.882 162.444 106.61C162.735 105.304 162.053 104.384 161.134 103.848C159.607 102.958 157.911 102.517 156.217 102.1C154.991 101.797 153.746 101.565 152.502 101.339C151.889 101.228 151.26 101.149 150.638 101.152C149.115 101.159 147.799 100.656 146.64 99.6875C145.249 98.525 143.849 97.3721 142.167 96.6357C140.259 95.7999 138.304 95.0831 136.274 94.6183C135.738 94.4955 135.126 94.6024 134.566 94.7028C133.704 94.8576 132.856 95.0926 131.949 94.8559Z" fill="#00160A"/>
<path fill-rule="evenodd" clip-rule="evenodd" d="M146.913 148.384C146.281 148.384 145.696 148.383 145.112 148.384C144.61 148.386 144.132 148.373 143.647 148.138C143.281 147.961 142.858 148.123 142.5 148.38C141.838 148.854 141.681 149.592 141.524 150.299C141.382 150.935 141.301 151.606 141.332 152.255C141.426 154.197 141.971 156.003 143.221 157.535C143.653 158.065 144.151 158.545 144.626 159.04C144.692 159.109 144.798 159.139 144.885 159.188C144.876 159.091 144.881 158.991 144.855 158.898C144.568 157.889 145.188 156.961 146.116 157.017C146.652 157.049 147.125 157.453 147.337 157.947C147.464 158.244 147.342 158.422 147.136 158.511C147.059 158.546 146.854 158.324 146.727 158.2C146.632 158.107 146.589 157.939 146.483 157.885C146.366 157.827 146.177 157.813 146.067 157.87C145.966 157.922 145.76 158.009 145.984 158.251C146.229 158.517 146.011 159.113 145.651 159.371C145.57 159.429 145.485 159.483 145.403 159.539C145.51 159.583 145.621 159.622 145.725 159.675C146.183 159.907 146.664 160.105 147.082 160.395C147.254 160.514 147.388 160.841 147.37 161.06C147.297 161.964 147.105 162.86 147.057 163.765C146.994 164.949 146.351 166.032 146.528 167.253C146.682 168.318 146.804 169.39 146.907 170.463C146.972 171.142 146.982 171.827 147 172.51C147.003 172.593 146.902 172.681 146.85 172.766C146.786 172.698 146.687 172.638 146.665 172.558C146.577 172.229 146.477 171.896 146.446 171.559C146.362 170.655 146.327 169.745 146.246 168.841C146.133 167.58 145.993 166.321 145.871 165.061C145.83 164.633 145.807 164.203 145.775 163.773C145.712 162.914 145.658 162.054 145.581 161.196C145.552 160.877 145.46 160.69 145.035 160.58C144.562 160.456 144.067 160.079 143.773 159.674C143.08 158.717 142.454 157.704 141.887 156.666C141.303 155.598 141.005 154.43 140.826 153.215C140.622 151.821 140.814 150.492 141.336 149.226C141.722 148.29 142.554 147.36 143.817 147.329C144.918 147.301 145.978 147.503 147.047 147.705C147.728 147.833 148.42 147.897 149.104 148.007C149.828 148.122 150.55 148.25 151.27 148.387C151.68 148.465 151.846 148.77 151.839 149.15C151.828 149.77 151.792 150.39 151.748 151.008C151.622 152.801 151.35 154.571 150.506 156.182C149.964 157.215 149.257 158.143 148.235 158.772C148.133 158.836 147.999 158.849 147.88 158.886C147.935 158.756 147.961 158.601 148.049 158.5C148.279 158.24 148.526 157.993 148.783 157.759C149.897 156.74 150.46 155.423 150.798 153.994C151.102 152.706 151.211 151.396 151.182 150.073C151.178 149.877 151.181 149.68 151.191 149.484C151.22 148.956 150.763 148.932 150.459 148.874C149.556 148.703 148.639 148.604 147.727 148.479C147.472 148.444 147.216 148.415 146.913 148.384Z" fill="#00160A"/>
<path fill-rule="evenodd" clip-rule="evenodd" d="M249.781 154.835C250.234 154.925 250.637 155.028 251.045 155.1C251.459 155.173 251.606 155.443 251.578 155.813C251.496 156.927 251.386 158.041 251.3 159.156C251.195 160.52 250.79 161.792 250.16 162.999C249.605 164.061 248.821 164.914 247.821 165.568C247.766 165.604 247.692 165.611 247.626 165.631C247.641 165.565 247.638 165.484 247.676 165.438C247.901 165.168 248.116 164.882 248.375 164.647C249.345 163.764 250.009 162.684 250.335 161.428C250.567 160.533 250.706 159.607 250.812 158.687C250.902 157.901 250.876 157.102 250.923 156.31C250.949 155.878 250.714 155.658 250.348 155.602C249.184 155.424 248.018 155.246 246.848 155.13C245.981 155.045 245.104 155.062 244.233 155.022C244.009 155.012 243.774 154.995 243.566 154.919C242.776 154.633 242.156 154.851 241.773 155.59C241.361 156.385 241.218 157.239 241.135 158.128C241.009 159.504 241.23 160.815 241.726 162.08C242.297 163.532 243.152 164.795 244.422 165.743C244.479 165.785 244.551 165.806 244.616 165.837C244.6 165.76 244.589 165.683 244.568 165.608C244.403 164.992 244.504 164.474 244.997 164.012C245.38 163.656 245.854 163.66 246.209 163.79C246.568 163.921 246.851 164.325 247.093 164.663C247.154 164.748 246.926 165.037 246.832 165.232C246.74 165.158 246.589 165.096 246.566 165.004C246.48 164.64 246.263 164.447 245.912 164.531C245.789 164.561 245.613 164.853 245.651 164.952C245.73 165.158 246.038 165.321 245.812 165.572C245.616 165.791 245.346 165.946 245.105 166.123C245.063 166.155 245.001 166.16 244.948 166.177C245.002 166.2 245.057 166.22 245.11 166.245C245.64 166.489 246.195 166.693 246.689 166.995C246.901 167.125 247.102 167.464 247.102 167.707C247.102 168.31 247.008 168.917 246.907 169.515C246.746 170.47 246.443 171.414 246.394 172.373C246.338 173.484 246.491 174.606 246.557 175.723C246.582 176.152 246.627 176.581 246.649 177.012C246.686 177.709 246.703 178.408 246.752 179.106C246.769 179.343 246.677 179.458 246.469 179.435C246.394 179.426 246.288 179.263 246.28 179.163C246.203 178.289 246.161 177.412 246.078 176.539C245.968 175.373 245.826 174.21 245.704 173.045C245.662 172.649 245.637 172.25 245.608 171.852C245.544 170.962 245.49 170.07 245.415 169.18C245.37 168.652 245.298 168.125 245.222 167.601C245.209 167.513 245.122 167.379 245.052 167.368C244.074 167.21 243.582 166.424 243.03 165.757C242.138 164.681 241.508 163.437 241.091 162.109C240.785 161.138 240.611 160.133 240.555 159.096C240.504 158.147 240.578 157.243 240.868 156.352C241.456 154.546 242.894 153.682 244.835 154.068C245.881 154.276 246.946 154.39 248.002 154.552C248.58 154.641 249.156 154.74 249.781 154.835Z" fill="#00160A"/>
<path fill-rule="evenodd" clip-rule="evenodd" d="M173.549 181.765C172.79 181.765 172.079 181.756 171.368 181.767C169.406 181.793 167.444 181.828 165.481 181.86C163.646 181.891 161.81 181.924 159.974 181.955C157.98 181.988 155.986 182.015 153.993 182.051C152.473 182.078 150.953 182.119 149.434 182.144C147.171 182.18 144.909 182.203 142.646 182.241C141.49 182.261 140.331 182.372 139.178 182.319C137.234 182.229 135.282 182.072 133.529 181.094C132.732 180.648 131.954 180.168 131.488 179.312C131.067 178.539 131.114 177.826 132.107 177.497C134.441 176.723 136.776 175.95 139.113 175.182C139.588 175.026 140.074 174.954 140.531 175.226C140.657 175.301 140.731 175.465 140.828 175.587C140.71 175.654 140.599 175.749 140.471 175.784C138.881 176.221 137.289 176.65 135.697 177.078C134.346 177.441 132.996 177.813 131.639 178.149C131.368 178.216 131.415 178.242 131.546 178.416C132.859 180.147 134.662 181.077 136.72 181.57C138.039 181.886 139.378 182.066 140.742 182.057C141.629 182.051 142.517 182.142 143.405 182.138C144.703 182.132 146.002 182.083 147.3 182.05C148.488 182.019 149.676 181.985 150.864 181.956C152.178 181.923 153.492 181.893 154.806 181.86C155.979 181.83 157.151 181.795 158.323 181.766C159.621 181.733 160.92 181.704 162.218 181.669C163.264 181.642 164.309 181.603 165.355 181.576C166.796 181.54 168.237 181.514 169.677 181.48C170.912 181.451 172.148 181.417 173.383 181.386C174.65 181.353 175.917 181.322 177.184 181.291C178.482 181.258 179.781 181.228 181.079 181.196C182.378 181.164 183.676 181.11 184.974 181.108C186.083 181.107 187.193 181.15 188.301 181.201C189.176 181.24 190.05 181.322 190.925 181.387C190.982 181.391 191.038 181.418 191.094 181.433C191.037 181.449 190.981 181.466 190.924 181.48C190.909 181.484 190.892 181.48 190.877 181.48C189.373 181.513 187.869 181.554 186.365 181.573C183.202 181.612 180.039 181.633 176.875 181.673C175.782 181.687 174.689 181.734 173.549 181.765Z" fill="#00160A"/>
<path fill-rule="evenodd" clip-rule="evenodd" d="M214.411 132.821C214.401 131.054 214.724 129.411 215.55 127.886C215.859 127.314 216.21 126.777 216.779 126.418C217.457 125.99 218.409 126.044 218.815 126.798C219.018 127.177 218.908 127.768 218.829 128.245C218.659 129.27 218.408 130.283 218.207 131.304C218.006 132.329 217.81 133.357 217.645 134.389C217.598 134.678 217.556 135.147 217.706 135.249C217.94 135.409 218.35 135.388 218.666 135.332C219.215 135.236 219.749 135.052 220.29 134.912C220.343 134.898 220.407 134.93 220.466 134.941C220.439 134.989 220.411 135.036 220.386 135.085C220.333 135.189 220.275 135.292 220.229 135.399C220.142 135.606 220.1 135.726 219.768 135.704C219.391 135.679 219.005 135.988 218.607 136.055C218.193 136.124 217.749 136.141 217.34 136.065C216.74 135.955 216.415 136.067 216.403 136.518C216.388 137.062 216.716 137.274 217.206 136.989C217.824 136.63 218.414 136.607 219.011 137C219.077 137.043 219.16 137.157 219.145 137.214C219.031 137.644 218.661 137.752 218.186 137.711C217.719 137.671 217.237 137.794 216.764 137.861C216.751 137.863 216.746 138.119 216.765 138.123C217.253 138.225 217.243 138.556 217.163 138.934C216.979 139.803 216.875 140.7 216.229 141.394C216.194 141.433 216.183 141.494 216.161 141.545C216.146 141.487 216.118 141.429 216.12 141.372C216.148 140.737 216.166 140.101 216.218 139.467C216.256 139.001 216.341 138.539 216.402 138.075C216.428 137.875 216.323 137.824 216.154 137.704C215.683 137.372 215.576 136.102 216.024 135.746C216.83 135.105 216.828 134.171 217.056 133.325C217.338 132.282 217.551 131.219 217.778 130.161C217.906 129.562 218.06 128.96 218.094 128.352C218.135 127.623 217.608 127.139 216.997 127.342C216.664 127.453 216.316 127.746 216.136 128.052C215.62 128.926 215.382 129.907 215.266 130.913C215.195 131.534 215.081 132.158 215.088 132.779C215.099 133.67 215.201 134.561 215.265 135.452C215.295 135.865 215.333 136.279 215.358 136.693C215.395 137.296 215.423 137.9 215.454 138.503C215.486 139.138 215.557 139.775 215.539 140.408C215.518 141.19 215.499 141.986 215.332 142.743C215.223 143.239 214.854 143.678 214.6 144.142C214.588 144.164 214.564 144.179 214.545 144.198C214.532 144.156 214.505 144.113 214.508 144.072C214.536 143.737 214.58 143.403 214.599 143.068C214.667 141.83 214.805 140.589 214.77 139.353C214.729 137.885 214.519 136.423 214.419 134.955C214.372 134.263 214.411 133.565 214.411 132.821Z" fill="#FFB61D"/>
<path fill-rule="evenodd" clip-rule="evenodd" d="M212.935 185.942C212.059 185.756 211.233 185.573 210.411 185.379C208.752 184.987 207.095 184.589 205.437 184.193C204.262 183.913 203.087 183.634 201.912 183.353C201.861 183.341 201.815 183.304 201.767 183.279C201.815 183.266 201.866 183.237 201.911 183.245C202.586 183.361 203.263 183.462 203.933 183.607C205.212 183.884 206.484 184.194 207.762 184.478C208.977 184.748 210.192 185.024 211.413 185.262C212.514 185.477 213.625 185.628 214.728 185.834C215.839 186.041 216.943 186.297 218.055 186.5C219.012 186.675 219.978 186.799 220.939 186.958C222.028 187.138 223.113 187.345 224.203 187.513C225.07 187.649 225.945 187.73 226.814 187.86C227.708 187.993 228.595 188.172 229.489 188.301C230.178 188.401 230.874 188.444 231.564 188.534C232.633 188.674 233.698 188.841 234.767 188.978C235.509 189.072 236.255 189.143 237 189.204C238.486 189.324 239.972 189.433 241.459 189.542C242.538 189.622 243.616 189.733 244.696 189.761C247.125 189.824 249.556 189.876 251.985 189.869C253.293 189.865 254.613 189.831 255.904 189.633C257.741 189.351 259.591 189.038 261.37 188.494C263.12 187.957 264.766 187.069 266.151 185.742C266.411 185.495 266.618 185.175 266.899 184.965C267.568 184.462 267.318 183.117 266.666 182.667C265.825 182.086 264.867 181.932 263.938 181.673C261.316 180.945 258.688 180.243 256.059 179.544C254.16 179.04 252.257 178.558 250.355 178.065C249.94 177.957 249.525 177.85 249.116 177.721C249.005 177.686 248.842 177.58 248.836 177.493C248.827 177.379 248.918 177.213 249.013 177.137C249.48 176.76 250.001 176.765 250.536 176.94C253.191 177.803 255.844 178.673 258.5 179.526C260.988 180.325 263.486 181.085 265.967 181.906C266.503 182.084 267.08 182.346 267.471 182.752C268.178 183.487 268.074 184.604 267.298 185.412C266.29 186.462 265.08 187.205 263.819 187.858C262.263 188.665 260.628 189.217 258.932 189.53C257.557 189.784 256.166 189.997 254.773 190.088C252.608 190.231 250.436 190.304 248.266 190.316C246.696 190.323 245.123 190.202 243.553 190.1C242.311 190.02 241.071 189.904 239.833 189.763C238.408 189.601 236.99 189.384 235.566 189.209C234.503 189.08 233.435 189.002 232.375 188.864C230.806 188.658 229.243 188.408 227.676 188.198C226.685 188.064 225.687 187.988 224.696 187.85C223.517 187.686 222.345 187.472 221.168 187.295C220.084 187.133 218.995 187.017 217.914 186.836C216.765 186.645 215.624 186.397 214.477 186.182C213.983 186.09 213.485 186.022 212.935 185.942Z" fill="#00160A"/>
<path fill-rule="evenodd" clip-rule="evenodd" d="M177.792 92.9884C178.934 92.9884 180.025 92.9604 181.114 92.9948C182.792 93.0479 184.45 93.2744 186.036 93.8974C186.293 93.9983 186.521 94.2002 186.743 94.3821C186.942 94.5456 186.97 94.7708 186.827 94.9997C186.669 95.2527 186.489 95.2865 186.223 95.1329C185.012 94.4353 183.715 94.0532 182.338 94.0026C181.14 93.9585 179.941 93.9283 178.742 93.888C177.72 93.8536 176.69 93.878 175.676 93.7575C174.725 93.6444 173.793 93.3575 172.847 93.1812C172.153 93.0515 171.479 92.7422 170.735 92.9701C170.463 93.0537 170.509 93.0736 170.667 93.2116C171.337 93.7978 172.089 94.2488 172.931 94.4387C174.458 94.7834 176.004 95.0291 177.535 95.3586C178.774 95.6255 179.996 95.9937 181.017 96.8316C181.252 97.0246 181.449 97.4297 181.453 97.7405C181.458 98.0617 181.176 98.3456 180.779 98.2981C180.733 98.2924 180.665 98.2902 180.644 98.2587C179.773 96.9325 178.45 96.4524 177.063 96.1524C176.062 95.9357 175.031 95.8763 174.025 95.6799C172.742 95.4295 171.489 95.0933 170.456 94.133C169.888 93.6042 169.512 93.0057 169.307 92.2326C169.184 91.7667 169.317 91.4534 169.618 91.1958C169.889 90.9632 170.14 91.076 170.446 91.2639C171.588 91.9633 172.798 92.5015 174.125 92.6468C175.328 92.7784 176.534 92.8759 177.792 92.9884Z" fill="#FFB61D"/>
<path fill-rule="evenodd" clip-rule="evenodd" d="M166.104 160.706C165.059 159.533 164.456 158.175 164.165 156.627C163.971 155.588 163.921 154.568 164.183 153.551C164.469 152.443 165.119 151.387 166.515 151.524C167.779 151.647 169.031 151.909 170.288 152.118C170.531 152.158 170.77 152.231 171.01 152.295C171.768 152.5 171.866 152.612 171.88 153.405C171.926 156.027 171.185 158.323 169.395 160.182C169.273 160.308 169.17 160.455 169.058 160.594C169.128 160.351 169.128 160.032 169.278 159.878C170.203 158.928 170.795 157.779 171.168 156.487C171.497 155.344 171.568 154.178 171.344 153.009C171.249 152.512 170.754 152.582 170.441 152.539C169.028 152.344 167.607 152.215 166.187 152.071C165.355 151.986 164.8 152.411 164.602 153.309C164.015 155.973 164.598 158.298 166.418 160.246C166.53 160.365 166.699 160.423 166.841 160.509C166.868 160.359 166.918 160.208 166.918 160.056C166.918 158.946 166.611 157.937 166.025 157.022C165.675 156.475 165.781 155.695 166.323 155.372C166.816 155.079 167.348 154.817 167.894 154.674C168.764 154.446 169.76 155.765 169.422 156.743C169.221 157.32 168.803 157.812 168.478 158.339C168.445 158.393 168.381 158.425 168.331 158.468C168.319 158.398 168.275 158.313 168.299 158.263C168.411 158.03 168.508 157.774 168.672 157.587C169.217 156.966 169.186 155.903 168.579 155.355C168.117 154.939 167.091 155.046 166.71 155.55C166.238 156.176 166.323 157.168 166.894 157.605C166.969 157.662 167.08 157.667 167.174 157.696C167.16 157.612 167.114 157.513 167.139 157.443C167.201 157.265 167.258 157.04 167.388 156.949C167.497 156.871 167.796 156.893 167.851 156.981C167.944 157.133 167.972 157.393 167.918 157.571C167.833 157.847 167.657 158.092 167.522 158.351C167.38 158.62 167.397 158.753 167.733 158.861C168.518 159.114 168.63 159.327 168.516 160.013C168.508 160.063 168.543 160.119 168.557 160.172C168.51 160.158 168.445 160.162 168.419 160.129C168.378 160.078 168.38 159.987 168.337 159.943C168.152 159.751 167.957 159.57 167.765 159.384C167.723 159.598 167.681 159.813 167.637 160.027C167.634 160.042 167.609 160.051 167.601 160.067C167.483 160.311 167.366 160.557 167.248 160.802C167.477 160.892 167.714 160.964 167.933 161.076C168.444 161.339 168.654 162.163 168.496 162.949C168.325 163.8 168.148 164.661 168.099 165.525C168.032 166.727 168.072 167.937 168.087 169.142C168.093 169.652 168.155 170.162 168.185 170.671C168.188 170.731 168.149 170.794 168.129 170.856C168.104 170.792 168.076 170.73 168.055 170.665C167.958 170.37 167.81 170.081 167.777 169.778C167.706 169.142 167.692 168.498 167.661 167.858C167.588 166.389 167.558 164.916 167.434 163.453C167.369 162.69 167.415 161.84 166.681 161.311C166.471 161.16 166.312 160.929 166.104 160.706Z" fill="#FFB61D"/>
<path fill-rule="evenodd" clip-rule="evenodd" d="M231.695 159.187C232.569 159.692 232.772 160.639 232.286 161.634C232.164 161.881 231.911 162.059 231.71 162.258C231.675 162.293 231.592 162.273 231.532 162.279C231.542 162.215 231.531 162.132 231.565 162.09C231.679 161.948 231.807 161.82 231.932 161.688C232.316 161.284 232.339 160.191 231.923 159.783C231.438 159.308 230.646 159.154 230.066 159.757C229.652 160.19 229.491 161.003 230.066 161.526C230.136 161.589 230.161 161.706 230.227 161.779C230.267 161.824 230.343 161.833 230.403 161.859C230.412 161.795 230.415 161.728 230.431 161.667C230.485 161.472 230.512 161.25 230.621 161.099C230.658 161.048 230.988 161.125 231.05 161.233C231.132 161.376 231.136 161.624 231.082 161.793C231.008 162.019 230.819 162.2 230.728 162.423C230.617 162.694 230.649 162.912 230.993 162.997C231.192 163.045 231.419 163.162 231.539 163.326C231.656 163.486 231.652 163.746 231.701 163.963C231.554 163.868 231.368 163.805 231.267 163.67C231.031 163.352 230.99 163.532 230.92 163.778C230.864 163.976 230.771 164.161 230.702 164.355C230.61 164.613 230.227 164.937 230.929 164.922C231.507 164.911 231.867 165.888 231.707 166.669C231.536 167.5 231.4 168.344 231.309 169.191C231.227 169.938 231.172 170.699 231.208 171.448C231.245 172.249 231.41 173.044 231.5 173.843C231.515 173.989 231.436 174.147 231.4 174.299C231.332 174.196 231.225 174.103 231.2 173.988C231.112 173.593 231.021 173.192 230.989 172.788C230.93 172.075 230.92 171.357 230.875 170.642C230.774 169.095 230.684 167.545 230.54 166.003C230.517 165.764 230.25 165.532 230.062 165.332C229.423 164.652 228.74 164.001 228.394 163.086C228.065 162.218 227.714 161.345 227.522 160.438C227.327 159.517 227.374 158.563 227.705 157.647C228.255 156.125 229.128 155.83 230.542 156.052C231.464 156.197 232.377 156.398 233.294 156.571C233.704 156.649 234.116 156.714 234.524 156.804C234.584 156.817 234.645 156.929 234.673 157.008C235.058 158.106 234.851 159.194 234.626 160.285C234.283 161.934 233.402 163.247 232.354 164.459C232.333 164.482 232.325 164.519 232.311 164.551C232.29 164.51 232.273 164.468 232.248 164.432C232.058 164.164 232.133 163.939 232.368 163.775C233.625 162.908 234.063 161.565 234.25 160.084C234.343 159.349 234.418 158.611 234.458 157.871C234.491 157.228 234.277 157.075 233.675 157.011C232.57 156.896 231.47 156.719 230.367 156.572C230.03 156.527 229.693 156.469 229.356 156.465C228.747 156.458 228.257 156.967 228.039 157.687C227.627 159.049 227.753 160.41 228.186 161.758C228.536 162.85 229.217 163.672 229.976 164.445C230.014 164.483 230.051 164.52 230.087 164.558C230.104 164.509 230.129 164.461 230.136 164.41C230.209 163.954 230.295 163.5 230.337 163.041C230.346 162.931 230.216 162.789 230.121 162.694C229.651 162.226 229.38 161.626 229.306 160.974C229.14 159.515 230.478 158.727 231.695 159.187Z" fill="#FFB61D"/>
<path fill-rule="evenodd" clip-rule="evenodd" d="M187.686 141.294C188.064 142.947 188.44 144.566 188.757 146.197C188.921 147.037 188.984 147.899 189.083 148.753C189.229 150.02 189.366 151.288 189.505 152.556C189.513 152.63 189.504 152.706 189.507 152.781C189.541 153.608 189.596 154.435 189.603 155.263C189.607 155.655 189.519 156.047 189.473 156.438C189.433 156.777 189.175 156.922 188.939 156.886C188.711 156.852 188.531 156.677 188.542 156.305C188.58 154.995 188.611 153.68 188.542 152.373C188.463 150.877 188.32 149.38 188.121 147.896C187.938 146.534 187.703 145.172 187.378 143.842C187.075 142.603 186.621 141.407 186.236 140.191C186.208 140.104 186.196 140.012 186.176 139.922C186.259 139.931 186.344 139.931 186.424 139.951C187.086 140.121 187.631 140.419 187.686 141.294Z" fill="#00160A"/>
<path fill-rule="evenodd" clip-rule="evenodd" d="M247.947 164.307C247.698 164.437 247.477 164.538 247.255 164.639C247.34 164.383 247.396 164.109 247.518 163.874C247.771 163.383 248.076 162.922 248.328 162.43C248.654 161.794 248.49 161.144 248.283 160.522C248.086 159.926 247.19 159.519 246.541 159.741C245.72 160.02 244.944 160.335 244.294 161.04C243.888 161.479 244.122 161.781 244.236 162.062C244.469 162.636 244.815 163.158 245.128 163.693C245.194 163.805 245.313 163.883 245.408 163.977C245.453 163.828 245.509 163.682 245.541 163.53C245.554 163.468 245.519 163.392 245.496 163.327C245.378 162.99 245.366 162.649 245.689 162.46C245.877 162.349 246.218 162.256 246.341 162.358C246.557 162.538 246.743 162.859 246.794 163.149C246.873 163.604 246.718 164.007 246.303 164.281C246.155 164.378 246.111 164.642 245.994 164.808C245.833 165.037 245.649 165.421 245.477 165.419C245.222 165.417 244.848 165.199 244.738 164.96C244.23 163.856 243.745 162.733 243.372 161.573C243.277 161.276 243.529 160.702 243.788 160.454C244.676 159.61 245.781 159.167 246.936 158.951C247.749 158.799 248.819 159.873 249.031 160.9C249.31 162.256 248.762 163.308 247.947 164.307Z" fill="#E7EAEE"/>
<path fill-rule="evenodd" clip-rule="evenodd" d="M147.82 152.407C149.125 153.046 149.822 154.55 149.104 156.13C148.826 156.743 148.368 157.267 147.96 157.804C147.891 157.896 147.662 157.851 147.507 157.869C147.554 157.704 147.559 157.5 147.655 157.38C148.141 156.766 148.558 156.134 148.739 155.324C148.971 154.289 148.227 153.018 147.242 152.991C146.816 152.98 146.372 153.168 145.961 153.336C145.614 153.478 145.294 153.707 144.978 153.922C144.129 154.502 144.242 154.756 144.595 155.536C144.854 156.107 145.194 156.637 145.52 157.169C145.562 157.238 145.738 157.212 145.852 157.23C145.86 157.163 145.877 157.096 145.875 157.031C145.865 156.663 145.794 156.282 145.854 155.929C145.924 155.522 146.239 155.498 146.565 155.626C147.24 155.893 147.253 156.658 146.81 157.346C146.574 157.714 146.166 157.956 146.205 158.504C146.207 158.54 145.736 158.694 145.517 158.643C145.313 158.596 145.077 158.384 144.983 158.179C144.533 157.199 144.12 156.201 143.706 155.203C143.469 154.634 143.592 154.143 144.062 153.771C145.07 152.973 146.124 152.285 147.442 152.299C147.55 152.3 147.658 152.369 147.82 152.407Z" fill="#FFB61D"/>
<path fill-rule="evenodd" clip-rule="evenodd" d="M161.75 173.226C163.166 172.909 164.441 172.339 165.684 171.678C165.713 171.663 165.748 171.649 165.779 171.653C165.948 171.666 166.117 171.687 166.285 171.704C166.178 171.821 166.084 171.959 165.96 172.051C164.701 172.992 163.294 173.563 161.782 173.774C160.481 173.958 159.166 174.03 157.855 174.122C156.514 174.216 155.168 174.24 153.83 174.365C153.021 174.441 152.225 174.668 151.419 174.794C151.092 174.845 150.713 174.808 150.589 174.416C150.465 174.024 150.605 173.603 150.979 173.47C151.417 173.315 151.898 173.274 152.363 173.237C152.626 173.216 152.895 173.323 153.163 173.335C154.909 173.417 156.655 173.546 158.401 173.543C159.5 173.541 160.599 173.339 161.75 173.226Z" fill="#00160A"/>
<path fill-rule="evenodd" clip-rule="evenodd" d="M242.275 175.927C242.795 176.126 243.263 176.324 243.73 176.524C243.81 176.558 243.885 176.605 243.963 176.646C243.865 176.744 243.756 176.936 243.673 176.924C243.198 176.856 242.714 176.788 242.26 176.632C240.866 176.153 239.495 175.596 238.092 175.145C237.272 174.88 236.407 174.782 235.57 174.57C235.034 174.432 234.355 174.571 234.071 173.86C233.993 173.664 233.961 173.299 234.063 173.203C234.221 173.057 234.542 172.977 234.746 173.041C235.665 173.334 236.575 173.669 237.475 174.023C239.062 174.645 240.64 175.291 242.275 175.927Z" fill="#E7EAEE"/>
<path fill-rule="evenodd" clip-rule="evenodd" d="M188.134 162.647C188.134 162.123 188.128 161.654 188.136 161.186C188.145 160.581 188.733 160.145 189.208 160.443C189.377 160.55 189.545 160.953 189.485 161.138C188.894 162.977 189.135 164.873 189.08 166.749C189.076 166.865 189.044 167.036 188.969 167.084C188.82 167.178 188.634 167.221 188.459 167.243C188.435 167.247 188.357 167.012 188.35 166.882C188.305 166.15 188.276 165.415 188.239 164.681C188.206 164.021 188.169 163.363 188.134 162.647Z" fill="#00160A"/>
<path fill-rule="evenodd" clip-rule="evenodd" d="M198.187 182.742C198.404 182.729 198.594 182.772 198.785 182.813C198.577 182.806 198.368 182.802 198.187 182.742Z" fill="#00160A"/>
<path fill-rule="evenodd" clip-rule="evenodd" d="M199.215 133.726C198.767 134.369 198.267 134.713 197.484 134.53C196.281 134.248 195.907 132.572 196.585 131.639C197.412 130.502 198.797 130.606 199.689 131.342C200.402 131.929 200.998 132.605 201.312 133.49C201.609 134.33 201.431 135.178 201.065 135.974C200.82 136.505 200.55 136.961 200.86 137.65C201.034 138.038 200.795 138.662 200.668 139.158C200.641 139.265 200.265 139.37 200.107 139.309C199.977 139.259 199.841 138.947 199.864 138.775C199.976 137.957 199.778 137.751 199.018 137.884C197.657 138.122 196.512 137.747 195.708 136.469C195.635 136.352 195.47 136.3 195.348 136.218C195.301 136.366 195.195 136.525 195.219 136.658C195.255 136.855 195.383 137.032 195.472 137.218C195.81 137.925 195.898 138.635 195.399 138.981C195.09 139.195 194.343 139.041 194.156 138.657C193.572 137.454 193.32 136.213 193.943 134.931C194.168 134.467 195.237 134.071 195.746 134.37C196.093 134.573 196.415 134.83 196.735 135.081C197.195 135.442 197.618 135.865 198.104 136.179C198.665 136.542 199.429 136.268 199.746 135.68C199.829 135.526 199.925 135.358 200.057 135.259C200.763 134.729 200.912 134.3 200.517 133.497C200.111 132.671 199.623 131.909 198.69 131.638C198.007 131.441 197.282 131.707 197 132.319C196.769 132.819 196.927 133.449 197.346 133.703C197.818 133.988 198.261 133.81 198.589 133.244C198.692 133.064 198.969 132.783 199.001 132.807C199.285 133.012 199.491 133.287 199.215 133.726ZM196.313 136.314C196.41 136.418 196.504 136.524 196.604 136.624C197.03 137.049 197.466 137.446 198.12 137.231C198.161 137.218 198.217 137.254 198.266 137.268C198.237 137.212 198.221 137.137 198.178 137.106C197.909 136.909 197.617 136.744 197.364 136.527C196.861 136.094 196.397 135.61 195.883 135.194C195.427 134.825 194.812 134.894 194.531 135.296C194.466 135.39 194.454 135.526 194.417 135.643C194.528 135.642 194.639 135.637 194.751 135.64C195.068 135.647 195.409 135.583 195.696 135.688C195.919 135.769 196.075 136.06 196.313 136.314Z" fill="#FFB61D"/>
<path fill-rule="evenodd" clip-rule="evenodd" d="M198.081 143.376C198.737 143.007 199.072 143.167 199.098 143.978C199.169 146.136 199.201 148.295 199.2 150.455C199.2 150.952 198.986 151.445 198.905 151.947C198.841 152.345 198.828 152.752 198.794 153.156C198.79 153.212 198.792 153.268 198.794 153.324C198.829 154.471 198.869 155.618 198.894 156.764C198.897 156.935 198.876 157.151 198.782 157.27C198.664 157.416 198.458 157.482 198.291 157.584C198.247 157.432 198.172 157.281 198.166 157.127C198.15 156.66 198.17 156.189 198.159 155.721C198.129 154.518 198.132 153.312 198.046 152.113C197.868 149.616 197.512 147.151 196.683 144.788C196.564 144.447 196.409 144.112 196.348 143.759C196.314 143.558 196.387 143.285 196.505 143.121C196.582 143.014 196.886 142.958 196.983 143.033C197.14 143.154 197.257 143.39 197.308 143.6C197.504 144.416 197.672 145.24 197.843 146.064C198.024 146.941 198.196 147.82 198.371 148.699C198.385 148.768 198.399 148.837 198.412 148.906C198.434 148.849 198.472 148.793 198.475 148.735C198.554 147.229 198.496 145.738 198.095 144.275C198.022 144.009 198.099 143.696 198.081 143.376Z" fill="#FFB61D"/>
<path fill-rule="evenodd" clip-rule="evenodd" d="M194.783 141.266C194.788 140.43 195.153 140.029 195.861 140.028C197.127 140.027 198.393 140.008 199.658 140.04C200.036 140.05 200.454 140.124 200.773 140.32C201.071 140.502 201.138 141.543 200.887 141.764C200.545 142.065 200.142 142.189 199.642 142.14C198.649 142.041 197.644 142.066 196.645 142.065C196.517 142.065 196.372 142.202 196.264 142.309C195.825 142.742 195.127 142.572 194.894 141.948C194.822 141.754 194.818 141.532 194.783 141.266ZM199.479 141.266C199.651 141.055 199.633 140.961 199.358 140.935C198.355 140.843 197.349 140.773 196.344 140.711C196.224 140.703 196.058 140.757 195.987 140.848C195.91 140.948 195.903 141.124 195.901 141.267C195.901 141.303 196.04 141.378 196.111 141.372C196.395 141.35 196.678 141.271 196.961 141.273C197.476 141.277 197.99 141.333 198.505 141.348C198.811 141.358 199.119 141.332 199.479 141.266Z" fill="#FFB61D"/>
<path fill-rule="evenodd" clip-rule="evenodd" d="M196.577 161.972C196.612 161.782 196.67 161.649 196.679 161.513C196.715 160.993 197.055 160.665 197.473 160.88C197.644 160.966 197.749 161.422 197.719 161.689C197.655 162.248 197.797 162.502 198.331 162.538C198.532 162.551 198.738 162.569 198.927 162.634C199.031 162.67 199.144 162.796 199.177 162.907C199.201 162.986 199.125 163.156 199.049 163.202C198.546 163.505 197.219 163.246 196.847 162.749C196.703 162.555 196.664 162.272 196.577 161.972Z" fill="#FFB61D"/>
<path fill-rule="evenodd" clip-rule="evenodd" d="M237.678 90.496C237.026 90.7752 236.29 90.9905 235.495 91.1532C232.805 91.7039 229.458 91.7214 226.893 91.6775C226.066 91.6634 225.325 91.645 224.715 91.6422C224.116 91.6395 223.658 91.6391 223.394 91.7096C222.149 92.0303 221.314 92.4168 220.756 92.8016C219.778 93.4753 219.73 94.0666 219.73 94.0666C219.74 94.2834 219.582 94.4678 219.379 94.4783C219.176 94.4886 219.003 94.3212 218.993 94.1045C218.993 94.1045 218.878 93.1275 220.261 92.0383C220.855 91.5697 221.756 91.075 223.118 90.6317C223.433 90.5326 223.985 90.473 224.708 90.4601C225.327 90.4491 226.08 90.4683 226.917 90.4946C229.425 90.5733 232.7 90.7393 235.335 90.2339C237.253 89.8657 238.83 89.1855 239.378 87.8526C239.474 87.6204 239.723 87.5084 239.946 87.5974C240.168 87.6865 240.287 87.9456 240.216 88.1878C240.216 88.1878 239.661 90.2553 237.771 91.904C237.261 92.3496 236.654 92.7675 235.931 93.0947C235.325 93.3687 234.637 93.5732 233.865 93.6965C231.159 94.0777 229.141 94.1946 227.853 94.83C227.12 95.1923 226.652 95.7363 226.472 96.6578C226.434 96.8803 226.233 97.0276 226.024 96.9864C225.815 96.9452 225.677 96.7312 225.716 96.5087C225.904 95.2641 226.499 94.5042 227.462 93.975C228.78 93.2502 230.881 93.0151 233.695 92.5001C234.367 92.3897 234.961 92.1989 235.492 91.9691C236.119 91.6981 236.656 91.3704 237.11 91.0059C237.316 90.8406 237.504 90.6693 237.678 90.496Z" fill="#FFB61D"/>
<path fill-rule="evenodd" clip-rule="evenodd" d="M155.072 100.28C155.072 100.28 153.045 98.1816 152.44 94.7566C152.306 94.0013 152.246 93.1823 152.279 92.3007C152.32 91.1881 152.507 89.9748 152.962 88.6749C153.69 86.558 154.937 84.7915 156.511 83.4982C157.593 82.6091 158.828 81.944 160.142 81.5292C163.259 80.5447 166.826 80.9796 169.945 83.242C169.937 83.2355 171.483 84.4232 172.651 86.8179C173.229 88.0006 173.691 89.4818 173.858 91.2374C173.89 91.4986 174.115 91.6841 174.362 91.6512C174.609 91.6183 174.785 91.3796 174.753 91.1184C174.488 89.2585 173.898 87.7212 173.25 86.4794C171.935 83.9619 170.32 82.6844 170.32 82.6844C170.317 82.6823 170.314 82.6802 170.311 82.678C167.019 80.28 163.253 79.8295 159.953 80.8516C158.557 81.284 157.246 81.9829 156.084 82.906C154.377 84.2619 152.991 86.1073 152.159 88.354C151.649 89.755 151.402 91.0654 151.375 92.2707C151.353 93.2322 151.468 94.1246 151.659 94.9373C151.88 95.8744 152.208 96.7042 152.57 97.4201C153.586 99.4324 154.862 100.53 154.862 100.53C154.927 100.591 155.027 100.585 155.085 100.516C155.143 100.447 155.137 100.341 155.072 100.28Z" fill="#00160A"/>
</svg>
