<svg width="356" height="143" viewBox="0 0 356 143" fill="none" xmlns="http://www.w3.org/2000/svg">
<rect y="11" width="57" height="114" rx="15" fill="#FF2E63"/>
<rect x="174" y="11" width="57" height="114" rx="15" fill="#FF2E63"/>
<path d="M54.3066 31.4961C54.3066 32.7331 54.0625 33.8887 53.5742 34.9629C53.1185 36.0371 52.4837 36.9811 51.6699 37.7949C50.8887 38.5762 49.9447 39.2109 48.8379 39.6992C47.7637 40.1549 46.6243 40.3828 45.4199 40.3828C44.1504 40.3828 42.9622 40.1549 41.8555 39.6992C40.7812 39.2109 39.8372 38.5762 39.0234 37.7949C38.2096 36.9811 37.5586 36.0371 37.0703 34.9629C36.6146 33.8887 36.3867 32.7331 36.3867 31.4961C36.3867 30.2917 36.6146 29.1523 37.0703 28.0781C37.5586 26.9714 38.2096 26.0273 39.0234 25.2461C39.8372 24.4323 40.7812 23.7975 41.8555 23.3418C42.9622 22.8535 44.1504 22.6094 45.4199 22.6094C46.6243 22.6094 47.7637 22.8535 48.8379 23.3418C49.9447 23.7975 50.8887 24.4323 51.6699 25.2461C52.4837 26.0273 53.1185 26.9714 53.5742 28.0781C54.0625 29.1523 54.3066 30.2917 54.3066 31.4961ZM18.5156 117.922V104.494L25.8887 104.592C27.679 104.592 29.3392 104.217 30.8691 103.469C32.3991 102.753 33.7174 101.776 34.8242 100.539C35.9635 99.3346 36.8587 97.9349 37.5098 96.3398C38.1608 94.7448 38.4863 93.0684 38.4863 91.3105V45.7051H52.1094V91.3105H52.0117C51.9792 93.752 51.6374 96.112 50.9863 98.3906C50.3678 100.669 49.4727 102.785 48.3008 104.738C47.1289 106.724 45.7292 108.514 44.1016 110.109C42.474 111.737 40.6673 113.12 38.6816 114.26C36.7285 115.432 34.6289 116.327 32.3828 116.945C30.1042 117.596 27.7441 117.922 25.3027 117.922H18.5156ZM112.754 71.3887C112.754 75.2949 112.054 78.9408 110.654 82.3262C109.255 85.679 107.35 88.5924 104.941 91.0664C102.533 93.5078 99.7005 95.4447 96.4453 96.877C93.2227 98.2767 89.7559 98.9766 86.0449 98.9766C82.3665 98.9766 78.8997 98.2767 75.6445 96.877C72.4219 95.4447 69.5898 93.5078 67.1484 91.0664C64.7396 88.5924 62.8353 85.679 61.4355 82.3262C60.0358 78.9408 59.3359 75.2949 59.3359 71.3887C59.3359 67.4173 60.0358 63.7389 61.4355 60.3535C62.8353 56.9681 64.7396 54.0547 67.1484 51.6133C69.5898 49.1393 72.4219 47.2025 75.6445 45.8027C78.8997 44.403 82.3665 43.7031 86.0449 43.7031C89.7559 43.7031 93.2227 44.3704 96.4453 45.7051C99.7005 47.0072 102.533 48.8789 104.941 51.3203C107.35 53.7292 109.255 56.6426 110.654 60.0605C112.054 63.446 112.754 67.222 112.754 71.3887ZM99.3262 71.3887C99.3262 69.2402 98.9681 67.3034 98.252 65.5781C97.5684 63.8203 96.6243 62.3229 95.4199 61.0859C94.2155 59.8164 92.7995 58.8561 91.1719 58.2051C89.5768 57.5215 87.8678 57.1797 86.0449 57.1797C84.222 57.1797 82.4967 57.5215 80.8691 58.2051C79.2741 58.8561 77.8743 59.8164 76.6699 61.0859C75.498 62.3229 74.5703 63.8203 73.8867 65.5781C73.2031 67.3034 72.8613 69.2402 72.8613 71.3887C72.8613 73.4069 73.2031 75.2786 73.8867 77.0039C74.5703 78.7292 75.498 80.2266 76.6699 81.4961C77.8743 82.7656 79.2741 83.7747 80.8691 84.5234C82.4967 85.2396 84.222 85.5977 86.0449 85.5977C87.8678 85.5977 89.5768 85.2559 91.1719 84.5723C92.7995 83.8887 94.2155 82.9284 95.4199 81.6914C96.6243 80.4544 97.5684 78.957 98.252 77.1992C98.9681 75.4414 99.3262 73.5046 99.3262 71.3887ZM172.471 71.3887C172.471 75.4902 171.771 79.2337 170.371 82.6191C168.971 86.0046 167.067 88.918 164.658 91.3594C162.249 93.7682 159.417 95.64 156.162 96.9746C152.939 98.3092 149.473 98.9766 145.762 98.9766C142.083 98.9766 138.617 98.293 135.361 96.9258C132.139 95.5586 129.307 93.6543 126.865 91.2129C124.456 88.7715 122.552 85.8743 121.152 82.5215C119.753 79.1361 119.053 75.4251 119.053 71.3887V24.9043H132.432V49.3184C133.148 48.4069 134.01 47.5931 135.02 46.877C136.061 46.1608 137.168 45.5749 138.34 45.1191C139.544 44.6634 140.781 44.3216 142.051 44.0938C143.32 43.8333 144.557 43.7031 145.762 43.7031C149.473 43.7031 152.939 44.403 156.162 45.8027C159.417 47.1699 162.249 49.0905 164.658 51.5645C167.067 54.0384 168.971 56.9681 170.371 60.3535C171.771 63.7064 172.471 67.3848 172.471 71.3887ZM159.043 71.3887C159.043 69.3704 158.685 67.4987 157.969 65.7734C157.285 64.0156 156.341 62.502 155.137 61.2324C153.932 59.9629 152.516 58.9701 150.889 58.2539C149.294 57.5378 147.585 57.1797 145.762 57.1797C143.939 57.1797 142.214 57.5866 140.586 58.4004C138.991 59.1816 137.591 60.2396 136.387 61.5742C135.182 62.8763 134.238 64.39 133.555 66.1152C132.871 67.8079 132.529 69.5658 132.529 71.3887C132.529 73.4069 132.871 75.2786 133.555 77.0039C134.238 78.7292 135.182 80.2266 136.387 81.4961C137.591 82.7656 138.991 83.7747 140.586 84.5234C142.214 85.2396 143.939 85.5977 145.762 85.5977C147.585 85.5977 149.294 85.2396 150.889 84.5234C152.516 83.7747 153.932 82.7656 155.137 81.4961C156.341 80.2266 157.285 78.7292 157.969 77.0039C158.685 75.2786 159.043 73.4069 159.043 71.3887ZM193.223 98H179.893V24.9043H193.223V48C194.818 46.7956 196.462 45.9492 198.154 45.4609C199.847 44.9401 201.572 44.6797 203.33 44.6797C206.553 44.6797 209.58 45.2982 212.412 46.5352C215.244 47.7396 217.702 49.416 219.785 51.5645C221.901 53.6803 223.561 56.1706 224.766 59.0352C226.003 61.8672 226.621 64.8945 226.621 68.1172V98H213.193V68.1172H213.291C213.291 66.75 213.031 65.4642 212.51 64.2598C211.989 63.0228 211.273 61.9486 210.361 61.0371C209.45 60.1257 208.392 59.4095 207.188 58.8887C205.983 58.3678 204.697 58.1074 203.33 58.1074C201.93 58.1074 200.612 58.3678 199.375 58.8887C198.138 59.4095 197.064 60.1257 196.152 61.0371C195.241 61.9486 194.525 63.0228 194.004 64.2598C193.483 65.4642 193.223 66.75 193.223 68.1172V98ZM274.18 91.8965C273.105 92.873 271.95 93.8008 270.713 94.6797C269.508 95.526 268.239 96.2747 266.904 96.9258C265.57 97.5443 264.186 98.0326 262.754 98.3906C261.354 98.7812 259.922 98.9766 258.457 98.9766C255.234 98.9766 252.207 98.4069 249.375 97.2676C246.543 96.1283 244.053 94.5169 241.904 92.4336C239.788 90.3177 238.112 87.7624 236.875 84.7676C235.671 81.7402 235.068 78.3548 235.068 74.6113V45.7051H248.35V74.6113C248.35 76.3691 248.61 77.9479 249.131 79.3477C249.684 80.7148 250.417 81.8704 251.328 82.8145C252.24 83.7585 253.298 84.4746 254.502 84.9629C255.739 85.4512 257.057 85.6953 258.457 85.6953C259.824 85.6953 261.11 85.3861 262.314 84.7676C263.551 84.1165 264.626 83.2702 265.537 82.2285C266.449 81.1868 267.165 80.015 267.686 78.7129C268.206 77.3783 268.467 76.0111 268.467 74.6113V45.7051H281.797V98H278.574L274.18 91.8965ZM344.346 71.3887C344.346 75.4902 343.646 79.2337 342.246 82.6191C340.846 86.0046 338.942 88.918 336.533 91.3594C334.124 93.7682 331.292 95.64 328.037 96.9746C324.814 98.3092 321.348 98.9766 317.637 98.9766C313.958 98.9766 310.492 98.293 307.236 96.9258C304.014 95.5586 301.182 93.6543 298.74 91.2129C296.331 88.7715 294.427 85.8743 293.027 82.5215C291.628 79.1361 290.928 75.4251 290.928 71.3887V24.9043H304.307V49.3184C305.023 48.4069 305.885 47.5931 306.895 46.877C307.936 46.1608 309.043 45.5749 310.215 45.1191C311.419 44.6634 312.656 44.3216 313.926 44.0938C315.195 43.8333 316.432 43.7031 317.637 43.7031C321.348 43.7031 324.814 44.403 328.037 45.8027C331.292 47.1699 334.124 49.0905 336.533 51.5645C338.942 54.0384 340.846 56.9681 342.246 60.3535C343.646 63.7064 344.346 67.3848 344.346 71.3887ZM330.918 71.3887C330.918 69.3704 330.56 67.4987 329.844 65.7734C329.16 64.0156 328.216 62.502 327.012 61.2324C325.807 59.9629 324.391 58.9701 322.764 58.2539C321.169 57.5378 319.46 57.1797 317.637 57.1797C315.814 57.1797 314.089 57.5866 312.461 58.4004C310.866 59.1816 309.466 60.2396 308.262 61.5742C307.057 62.8763 306.113 64.39 305.43 66.1152C304.746 67.8079 304.404 69.5658 304.404 71.3887C304.404 73.4069 304.746 75.2786 305.43 77.0039C306.113 78.7292 307.057 80.2266 308.262 81.4961C309.466 82.7656 310.866 83.7747 312.461 84.5234C314.089 85.2396 315.814 85.5977 317.637 85.5977C319.46 85.5977 321.169 85.2396 322.764 84.5234C324.391 83.7747 325.807 82.7656 327.012 81.4961C328.216 80.2266 329.16 78.7292 329.844 77.0039C330.56 75.2786 330.918 73.4069 330.918 71.3887Z" fill="#05396B"/>
</svg>
